<svg xmlns="http://www.w3.org/2000/svg" xmlns:xlink="http://www.w3.org/1999/xlink" width="1200" zoomAndPan="magnify" viewBox="0 0 900 521.249983" height="695" preserveAspectRatio="xMidYMid meet" version="1.0"><defs><filter x="0%" y="0%" width="100%" height="100%" id="604e622444"><feColorMatrix values="0 0 0 0 1 0 0 0 0 1 0 0 0 0 1 0 0 0 1 0" color-interpolation-filters="sRGB"/></filter><g/><clipPath id="45314659ac"><path d="M 0.648438 0 L 899.351562 0 L 899.351562 520.5 L 0.648438 520.5 Z M 0.648438 0 " clip-rule="nonzero"/></clipPath><clipPath id="9cab05a81c"><path d="M 81 0 L 849 0 L 849 520.5 L 81 520.5 Z M 81 0 " clip-rule="nonzero"/></clipPath><mask id="3193d2c432"><g filter="url(#604e622444)"><rect x="-90" width="1080" fill="#000000" y="-52.124998" height="625.49998" fill-opacity="0.0392"/></g></mask><clipPath id="8eb019fb42"><path d="M 0.171875 0 L 766 0 L 766 520.5 L 0.171875 520.5 Z M 0.171875 0 " clip-rule="nonzero"/></clipPath><clipPath id="67669e6606"><rect x="0" width="768" y="0" height="521"/></clipPath></defs><g clip-path="url(#45314659ac)"><path fill="#ffffff" d="M 0.648438 0 L 899.351562 0 L 899.351562 520.5 L 0.648438 520.5 Z M 0.648438 0 " fill-opacity="1" fill-rule="nonzero"/><path fill="#f4f6fc" d="M 0.648438 0 L 899.351562 0 L 899.351562 520.5 L 0.648438 520.5 Z M 0.648438 0 " fill-opacity="1" fill-rule="nonzero"/></g><g clip-path="url(#9cab05a81c)"><g mask="url(#3193d2c432)"><g transform="matrix(1, 0, 0, 1, 81, 0)"><g clip-path="url(#67669e6606)"><g clip-path="url(#8eb019fb42)"><path fill="#233dff" d="M 143.171875 -242.542969 L 63.609375 -332.144531 L 0.339844 -332.144531 L 0.339844 -127.066406 L 68.878906 -127.066406 L 68.878906 -215.710938 L 148.441406 -127.066406 L 211.230469 -127.066406 L 211.230469 -332.144531 L 143.171875 -332.144531 Z M 151.316406 -323.523438 L 202.601562 -323.523438 L 202.601562 -135.691406 L 151.796875 -135.691406 L 60.253906 -237.753906 L 60.253906 -135.691406 L 8.96875 -135.691406 L 8.96875 -323.523438 L 59.773438 -323.523438 L 151.316406 -220.023438 Z M 320.507812 -204.210938 L 415.40625 -204.210938 L 415.40625 -257.878906 L 320.507812 -257.878906 L 320.507812 -276.5625 L 431.222656 -276.5625 L 431.222656 -332.144531 L 246.695312 -332.144531 L 246.695312 -127.066406 L 433.140625 -127.066406 L 433.140625 -183.128906 L 320.507812 -183.128906 Z M 424.992188 -174.503906 L 424.992188 -135.691406 L 255.324219 -135.691406 L 255.324219 -323.523438 L 423.074219 -323.523438 L 423.074219 -284.710938 L 312.359375 -284.710938 L 312.359375 -249.253906 L 407.257812 -249.253906 L 407.257812 -212.355469 L 312.359375 -212.355469 L 312.359375 -174.023438 L 424.992188 -174.023438 Z M 589.871094 -127.066406 L 613.355469 -233.917969 L 636.839844 -127.066406 L 715.441406 -127.066406 L 765.289062 -332.144531 L 691 -332.144531 L 671.828125 -234.398438 L 650.261719 -332.144531 L 578.84375 -332.144531 L 558.714844 -234.398438 L 538.105469 -332.144531 L 461.417969 -332.144531 L 511.265625 -127.066406 Z M 531.394531 -323.523438 L 554.882812 -212.355469 L 563.027344 -212.355469 L 586.035156 -323.523438 L 643.550781 -323.523438 L 667.992188 -212.355469 L 676.140625 -212.355469 L 698.1875 -323.523438 L 754.265625 -323.523438 L 708.734375 -135.691406 L 643.550781 -135.691406 L 617.1875 -255.480469 L 609.039062 -255.480469 L 582.679688 -135.691406 L 517.496094 -135.691406 L 471.964844 -323.523438 Z M 143.171875 8.054688 L 63.609375 -82.027344 L 0.339844 -82.027344 L 0.339844 123.054688 L 68.878906 123.054688 L 68.878906 34.410156 L 148.441406 123.054688 L 211.230469 123.054688 L 211.230469 -82.027344 L 143.171875 -82.027344 Z M 151.316406 -73.402344 L 202.601562 -73.402344 L 202.601562 114.429688 L 151.796875 114.429688 L 60.253906 12.367188 L 60.253906 114.429688 L 8.96875 114.429688 L 8.96875 -73.402344 L 59.773438 -73.402344 L 151.316406 30.097656 Z M 320.507812 45.910156 L 415.40625 45.910156 L 415.40625 -7.757812 L 320.507812 -7.757812 L 320.507812 -26.445312 L 431.222656 -26.445312 L 431.222656 -82.027344 L 246.695312 -82.027344 L 246.695312 123.054688 L 433.140625 123.054688 L 433.140625 67.472656 L 320.507812 67.472656 Z M 424.992188 75.617188 L 424.992188 114.429688 L 255.324219 114.429688 L 255.324219 -73.402344 L 423.074219 -73.402344 L 423.074219 -34.589844 L 312.359375 -34.589844 L 312.359375 0.867188 L 407.257812 0.867188 L 407.257812 37.761719 L 312.359375 37.761719 L 312.359375 76.097656 L 424.992188 76.097656 Z M 671.828125 16.199219 L 650.261719 -81.546875 L 578.84375 -81.546875 L 558.714844 16.199219 L 538.105469 -81.546875 L 461.417969 -81.546875 L 510.785156 123.054688 L 589.871094 123.054688 L 613.355469 16.199219 L 636.839844 123.054688 L 715.441406 123.054688 L 765.289062 -82.027344 L 691 -82.027344 Z M 754.265625 -73.402344 L 708.734375 114.429688 L 643.550781 114.429688 L 617.1875 -5.359375 L 609.039062 -5.359375 L 582.679688 114.429688 L 517.496094 114.429688 L 471.964844 -73.402344 L 531.394531 -73.402344 L 554.882812 37.761719 L 563.027344 37.761719 L 586.035156 -73.402344 L 643.550781 -73.402344 L 667.992188 37.761719 L 676.140625 37.761719 L 698.1875 -73.402344 Z M 143.171875 258.175781 L 63.609375 168.574219 L 0.339844 168.574219 L 0.339844 373.652344 L 68.878906 373.652344 L 68.878906 285.007812 L 148.441406 373.652344 L 211.230469 373.652344 L 211.230469 168.574219 L 143.171875 168.574219 Z M 151.316406 176.71875 L 202.601562 176.71875 L 202.601562 364.546875 L 151.796875 364.546875 L 60.253906 262.488281 L 60.253906 364.546875 L 8.96875 364.546875 L 8.96875 176.71875 L 59.773438 176.71875 L 151.316406 280.214844 Z M 320.507812 296.027344 L 415.40625 296.027344 L 415.40625 242.363281 L 320.507812 242.363281 L 320.507812 223.675781 L 431.222656 223.675781 L 431.222656 168.09375 L 246.695312 168.09375 L 246.695312 373.171875 L 433.140625 373.171875 L 433.140625 317.589844 L 320.507812 317.589844 Z M 424.992188 326.214844 L 424.992188 365.027344 L 255.324219 365.027344 L 255.324219 177.199219 L 423.074219 177.199219 L 423.074219 216.007812 L 312.359375 216.007812 L 312.359375 251.46875 L 407.257812 251.46875 L 407.257812 288.363281 L 312.359375 288.363281 L 312.359375 326.695312 L 424.992188 326.695312 Z M 671.828125 266.320312 L 650.261719 168.574219 L 578.84375 168.574219 L 558.714844 266.320312 L 538.105469 168.574219 L 461.417969 168.574219 L 511.265625 373.652344 L 589.871094 373.652344 L 613.355469 266.800781 L 636.839844 373.652344 L 715.441406 373.652344 L 765.289062 168.574219 L 691 168.574219 Z M 754.265625 176.71875 L 708.734375 364.546875 L 643.550781 364.546875 L 617.1875 244.757812 L 609.039062 244.757812 L 582.679688 364.546875 L 517.496094 364.546875 L 471.964844 176.71875 L 531.394531 176.71875 L 554.882812 287.882812 L 563.027344 287.882812 L 586.035156 176.71875 L 643.550781 176.71875 L 667.992188 287.882812 L 676.140625 287.882812 L 698.1875 176.71875 Z M 147.003906 410.546875 L 206.914062 410.546875 L 206.914062 607.003906 L 150.359375 607.003906 L 64.566406 511.648438 L 64.566406 607.003906 L 4.65625 607.003906 L 4.65625 410.546875 L 61.691406 410.546875 L 147.484375 507.335938 L 147.484375 410.546875 Z M 316.671875 560.042969 L 429.308594 560.042969 L 429.308594 607.003906 L 251.011719 607.003906 L 251.011719 410.546875 L 426.910156 410.546875 L 426.910156 457.503906 L 316.671875 457.503906 L 316.671875 484.339844 L 411.574219 484.339844 L 411.574219 529.378906 L 316.671875 529.378906 Z M 694.355469 410.546875 L 759.539062 410.546875 L 711.609375 607.003906 L 639.714844 607.003906 L 613.355469 487.210938 L 612.394531 487.210938 L 586.035156 607.003906 L 514.140625 607.003906 L 466.691406 410.546875 L 534.75 410.546875 L 558.234375 521.710938 L 559.195312 521.710938 L 582.199219 410.546875 L 646.425781 410.546875 L 670.871094 521.710938 L 672.308594 521.710938 Z M 694.355469 410.546875 " fill-opacity="1" fill-rule="nonzero"/></g></g></g></g></g><path stroke-linecap="butt" transform="matrix(0.752098, 0, 0, 0.748922, 772.293098, 415.05325)" fill="none" stroke-linejoin="miter" d="M -0.000172364 0.497422 L 36.844656 0.497422 " stroke="#2e266d" stroke-width="1" stroke-opacity="1" stroke-miterlimit="4"/><g fill="#2e266d" fill-opacity="1"><g transform="translate(670.19322, 419.918176)"><g><path d="M 6 0 L 2.21875 -4.203125 L 2.21875 0 L 1.015625 0 L 1.015625 -9.203125 L 2.21875 -9.203125 L 2.21875 -4.9375 L 6.015625 -9.203125 L 7.53125 -9.203125 L 3.359375 -4.59375 L 7.578125 0 Z M 6 0 "/></g></g></g><g fill="#2e266d" fill-opacity="1"><g transform="translate(678.092786, 419.918176)"><g><path d="M 4 -7.359375 C 4.625 -7.359375 5.171875 -7.21875 5.640625 -6.9375 C 6.109375 -6.664062 6.457031 -6.328125 6.6875 -5.921875 L 6.6875 -7.234375 L 7.90625 -7.234375 L 7.90625 0.15625 C 7.90625 0.820312 7.765625 1.410156 7.484375 1.921875 C 7.203125 2.429688 6.800781 2.832031 6.28125 3.125 C 5.757812 3.414062 5.148438 3.5625 4.453125 3.5625 C 3.503906 3.5625 2.710938 3.335938 2.078125 2.890625 C 1.441406 2.441406 1.066406 1.832031 0.953125 1.0625 L 2.140625 1.0625 C 2.273438 1.5 2.546875 1.847656 2.953125 2.109375 C 3.367188 2.378906 3.867188 2.515625 4.453125 2.515625 C 5.109375 2.515625 5.644531 2.304688 6.0625 1.890625 C 6.476562 1.484375 6.6875 0.90625 6.6875 0.15625 L 6.6875 -1.359375 C 6.457031 -0.929688 6.109375 -0.578125 5.640625 -0.296875 C 5.171875 -0.015625 4.625 0.125 4 0.125 C 3.351562 0.125 2.769531 -0.03125 2.25 -0.34375 C 1.726562 -0.664062 1.316406 -1.113281 1.015625 -1.6875 C 0.710938 -2.257812 0.5625 -2.910156 0.5625 -3.640625 C 0.5625 -4.378906 0.710938 -5.03125 1.015625 -5.59375 C 1.316406 -6.15625 1.726562 -6.585938 2.25 -6.890625 C 2.769531 -7.203125 3.351562 -7.359375 4 -7.359375 Z M 6.6875 -3.625 C 6.6875 -4.175781 6.578125 -4.65625 6.359375 -5.0625 C 6.140625 -5.46875 5.84375 -5.773438 5.46875 -5.984375 C 5.09375 -6.203125 4.679688 -6.3125 4.234375 -6.3125 C 3.785156 -6.3125 3.375 -6.203125 3 -5.984375 C 2.632812 -5.773438 2.34375 -5.46875 2.125 -5.0625 C 1.90625 -4.664062 1.796875 -4.191406 1.796875 -3.640625 C 1.796875 -3.085938 1.90625 -2.601562 2.125 -2.1875 C 2.34375 -1.78125 2.632812 -1.46875 3 -1.25 C 3.375 -1.039062 3.785156 -0.9375 4.234375 -0.9375 C 4.679688 -0.9375 5.09375 -1.039062 5.46875 -1.25 C 5.84375 -1.46875 6.140625 -1.78125 6.359375 -2.1875 C 6.578125 -2.601562 6.6875 -3.082031 6.6875 -3.625 Z M 6.6875 -3.625 "/></g></g></g><g fill="#2e266d" fill-opacity="1"><g transform="translate(687.007813, 419.918176)"><g><path d="M 3.578125 0.125 C 3.023438 0.125 2.523438 0.03125 2.078125 -0.15625 C 1.640625 -0.351562 1.289062 -0.617188 1.03125 -0.953125 C 0.78125 -1.296875 0.644531 -1.6875 0.625 -2.125 L 1.859375 -2.125 C 1.898438 -1.757812 2.070312 -1.460938 2.375 -1.234375 C 2.675781 -1.003906 3.070312 -0.890625 3.5625 -0.890625 C 4.019531 -0.890625 4.378906 -0.988281 4.640625 -1.1875 C 4.910156 -1.394531 5.046875 -1.65625 5.046875 -1.96875 C 5.046875 -2.28125 4.90625 -2.515625 4.625 -2.671875 C 4.34375 -2.828125 3.90625 -2.976562 3.3125 -3.125 C 2.78125 -3.269531 2.34375 -3.414062 2 -3.5625 C 1.65625 -3.707031 1.363281 -3.921875 1.125 -4.203125 C 0.882812 -4.492188 0.765625 -4.867188 0.765625 -5.328125 C 0.765625 -5.703125 0.875 -6.039062 1.09375 -6.34375 C 1.3125 -6.65625 1.625 -6.898438 2.03125 -7.078125 C 2.4375 -7.265625 2.898438 -7.359375 3.421875 -7.359375 C 4.222656 -7.359375 4.867188 -7.15625 5.359375 -6.75 C 5.847656 -6.34375 6.113281 -5.785156 6.15625 -5.078125 L 4.953125 -5.078125 C 4.921875 -5.460938 4.765625 -5.769531 4.484375 -6 C 4.210938 -6.226562 3.84375 -6.34375 3.375 -6.34375 C 2.945312 -6.34375 2.601562 -6.25 2.34375 -6.0625 C 2.09375 -5.875 1.96875 -5.628906 1.96875 -5.328125 C 1.96875 -5.097656 2.039062 -4.90625 2.1875 -4.75 C 2.34375 -4.59375 2.535156 -4.46875 2.765625 -4.375 C 3.003906 -4.28125 3.332031 -4.175781 3.75 -4.0625 C 4.269531 -3.925781 4.691406 -3.789062 5.015625 -3.65625 C 5.335938 -3.519531 5.613281 -3.3125 5.84375 -3.03125 C 6.082031 -2.757812 6.207031 -2.40625 6.21875 -1.96875 C 6.21875 -1.570312 6.109375 -1.210938 5.890625 -0.890625 C 5.671875 -0.578125 5.359375 -0.328125 4.953125 -0.140625 C 4.554688 0.0351562 4.097656 0.125 3.578125 0.125 Z M 3.578125 0.125 "/></g></g></g><g fill="#2e266d" fill-opacity="1"><g transform="translate(693.891907, 419.918176)"><g><path d="M 1.40625 0.078125 C 1.175781 0.078125 0.976562 0 0.8125 -0.15625 C 0.65625 -0.3125 0.578125 -0.503906 0.578125 -0.734375 C 0.578125 -0.960938 0.65625 -1.15625 0.8125 -1.3125 C 0.976562 -1.476562 1.175781 -1.5625 1.40625 -1.5625 C 1.625 -1.5625 1.804688 -1.476562 1.953125 -1.3125 C 2.109375 -1.15625 2.1875 -0.960938 2.1875 -0.734375 C 2.1875 -0.503906 2.109375 -0.3125 1.953125 -0.15625 C 1.804688 0 1.625 0.078125 1.40625 0.078125 Z M 1.40625 0.078125 "/></g></g></g><g fill="#2e266d" fill-opacity="1"><g transform="translate(696.661372, 419.918176)"><g/></g></g><g fill="#2e266d" fill-opacity="1"><g transform="translate(700.182547, 419.918176)"><g><path d="M 12.578125 -9.203125 L 9.921875 0 L 8.5625 0 L 6.4375 -7.40625 L 4.21875 0 L 2.875 0.015625 L 0.296875 -9.203125 L 1.578125 -9.203125 L 3.59375 -1.40625 L 5.8125 -9.203125 L 7.15625 -9.203125 L 9.265625 -1.421875 L 11.28125 -9.203125 Z M 12.578125 -9.203125 "/></g></g></g><g fill="#2e266d" fill-opacity="1"><g transform="translate(713.053956, 419.918176)"><g><path d="M 0.5625 -3.640625 C 0.5625 -4.378906 0.710938 -5.03125 1.015625 -5.59375 C 1.316406 -6.15625 1.726562 -6.585938 2.25 -6.890625 C 2.769531 -7.203125 3.351562 -7.359375 4 -7.359375 C 4.632812 -7.359375 5.179688 -7.21875 5.640625 -6.9375 C 6.109375 -6.664062 6.457031 -6.328125 6.6875 -5.921875 L 6.6875 -7.234375 L 7.90625 -7.234375 L 7.90625 0 L 6.6875 0 L 6.6875 -1.34375 C 6.457031 -0.925781 6.101562 -0.578125 5.625 -0.296875 C 5.15625 -0.015625 4.609375 0.125 3.984375 0.125 C 3.347656 0.125 2.769531 -0.03125 2.25 -0.34375 C 1.726562 -0.664062 1.316406 -1.113281 1.015625 -1.6875 C 0.710938 -2.257812 0.5625 -2.910156 0.5625 -3.640625 Z M 6.6875 -3.625 C 6.6875 -4.175781 6.578125 -4.65625 6.359375 -5.0625 C 6.140625 -5.46875 5.84375 -5.773438 5.46875 -5.984375 C 5.09375 -6.203125 4.679688 -6.3125 4.234375 -6.3125 C 3.785156 -6.3125 3.375 -6.203125 3 -5.984375 C 2.632812 -5.773438 2.34375 -5.46875 2.125 -5.0625 C 1.90625 -4.664062 1.796875 -4.191406 1.796875 -3.640625 C 1.796875 -3.085938 1.90625 -2.601562 2.125 -2.1875 C 2.34375 -1.78125 2.632812 -1.46875 3 -1.25 C 3.375 -1.039062 3.785156 -0.9375 4.234375 -0.9375 C 4.679688 -0.9375 5.09375 -1.039062 5.46875 -1.25 C 5.84375 -1.46875 6.140625 -1.78125 6.359375 -2.1875 C 6.578125 -2.601562 6.6875 -3.082031 6.6875 -3.625 Z M 6.6875 -3.625 "/></g></g></g><g fill="#2e266d" fill-opacity="1"><g transform="translate(721.968983, 419.918176)"><g><path d="M 4.609375 -7.375 C 5.148438 -7.375 5.640625 -7.253906 6.078125 -7.015625 C 6.523438 -6.785156 6.875 -6.4375 7.125 -5.96875 C 7.375 -5.5 7.5 -4.929688 7.5 -4.265625 L 7.5 0 L 6.3125 0 L 6.3125 -4.09375 C 6.3125 -4.8125 6.128906 -5.363281 5.765625 -5.75 C 5.410156 -6.132812 4.921875 -6.328125 4.296875 -6.328125 C 3.660156 -6.328125 3.15625 -6.128906 2.78125 -5.734375 C 2.40625 -5.335938 2.21875 -4.757812 2.21875 -4 L 2.21875 0 L 1.015625 0 L 1.015625 -9.765625 L 2.21875 -9.765625 L 2.21875 -6.203125 C 2.457031 -6.578125 2.785156 -6.863281 3.203125 -7.0625 C 3.617188 -7.269531 4.085938 -7.375 4.609375 -7.375 Z M 4.609375 -7.375 "/></g></g></g><g fill="#2e266d" fill-opacity="1"><g transform="translate(730.409249, 419.918176)"><g><path d="M 7.25 -7.234375 L 2.890625 3.40625 L 1.65625 3.40625 L 3.078125 -0.078125 L 0.15625 -7.234375 L 1.484375 -7.234375 L 3.765625 -1.375 L 6 -7.234375 Z M 7.25 -7.234375 "/></g></g></g><g fill="#2e266d" fill-opacity="1"><g transform="translate(737.834044, 419.918176)"><g><path d="M 7.4375 -7.234375 L 7.4375 0 L 6.234375 0 L 6.234375 -1.0625 C 6.003906 -0.695312 5.679688 -0.410156 5.265625 -0.203125 C 4.859375 0.00390625 4.410156 0.109375 3.921875 0.109375 C 3.359375 0.109375 2.851562 -0.00390625 2.40625 -0.234375 C 1.957031 -0.472656 1.601562 -0.828125 1.34375 -1.296875 C 1.082031 -1.765625 0.953125 -2.332031 0.953125 -3 L 0.953125 -7.234375 L 2.140625 -7.234375 L 2.140625 -3.15625 C 2.140625 -2.445312 2.316406 -1.898438 2.671875 -1.515625 C 3.035156 -1.128906 3.53125 -0.9375 4.15625 -0.9375 C 4.800781 -0.9375 5.304688 -1.132812 5.671875 -1.53125 C 6.046875 -1.925781 6.234375 -2.503906 6.234375 -3.265625 L 6.234375 -7.234375 Z M 7.4375 -7.234375 "/></g></g></g><g fill="#2e266d" fill-opacity="1"><g transform="translate(746.27431, 419.918176)"><g/></g></g><g fill="#2e266d" fill-opacity="1"><g transform="translate(749.795486, 419.918176)"><g><path d="M 8.109375 -9.203125 L 8.109375 0 L 6.90625 0 L 6.90625 -4.171875 L 2.21875 -4.171875 L 2.21875 0 L 1.015625 0 L 1.015625 -9.203125 L 2.21875 -9.203125 L 2.21875 -5.15625 L 6.90625 -5.15625 L 6.90625 -9.203125 Z M 8.109375 -9.203125 "/></g></g></g><path fill="#2e266d" d="M 233.351562 265.246094 C 231.710938 268.082031 230.964844 269.578125 229.320312 272.714844 C 222.601562 272.566406 219.167969 272.566406 212.449219 272.566406 C 214.089844 269.429688 214.988281 267.933594 216.628906 265.246094 C 219.464844 260.765625 219.167969 258.226562 213.792969 258.671875 C 208.566406 259.121094 203.488281 261.808594 200.503906 266.140625 C 186.617188 286.457031 178.105469 311.550781 179.449219 336.347656 C 180.046875 342.320312 183.480469 345.757812 188.855469 346.503906 C 194.230469 347.398438 196.171875 344.710938 195.726562 338.585938 C 195.425781 334.851562 195.425781 333.058594 195.726562 329.175781 C 202.445312 329.625 205.878906 329.625 212.746094 329.476562 C 212.449219 333.359375 212.449219 335.152344 212.597656 338.886719 C 213.34375 357.257812 211.402344 364.726562 196.023438 361.589844 C 180.644531 358.453125 167.355469 347.101562 164.964844 330.96875 C 162.875 308.265625 171.386719 285.261719 185.570312 267.785156 C 194.828125 257.03125 213.195312 248.664062 228.425781 246.425781 C 243.65625 244.332031 241.417969 251.355469 233.351562 265.246094 Z M 233.351562 265.246094 " fill-opacity="1" fill-rule="nonzero"/><path fill="#2e266d" d="M 220.960938 338.585938 C 221.109375 313.042969 229.320312 287.652344 241.566406 265.394531 C 249.480469 251.503906 267.25 246.125 282.480469 248.21875 C 297.710938 250.308594 297.113281 256.285156 290.542969 268.679688 C 280.386719 288.996094 272.625 311.550781 270.535156 334.253906 C 269.785156 350.089844 266.351562 356.214844 250.824219 359.050781 C 235.292969 361.890625 221.558594 356.8125 220.960938 338.585938 Z M 257.992188 266.441406 C 246.492188 288.097656 238.28125 312.746094 237.535156 337.542969 C 237.535156 343.367188 240.820312 345.757812 246.195312 345.011719 C 251.570312 344.414062 253.808594 341.574219 253.960938 336.046875 C 255.304688 312.296875 263.214844 288.695312 274.117188 267.636719 C 276.355469 263.304688 275.757812 260.765625 270.382812 260.167969 C 265.15625 259.867188 260.527344 261.960938 257.992188 266.441406 Z M 257.992188 266.441406 " fill-opacity="1" fill-rule="nonzero"/><path fill="#2e266d" d="M 303.085938 300.050781 C 297.710938 314.089844 292.183594 335.75 297.859375 350.835938 C 291.585938 351.730469 288.453125 352.179688 282.179688 353.226562 C 270.234375 324.695312 290.988281 270.472656 313.238281 251.800781 C 319.808594 252.25 323.09375 252.398438 329.664062 252.25 C 321.003906 264.050781 321.898438 274.207031 320.554688 296.914062 C 332.203125 277.792969 341.308594 263.902344 356.839844 247.917969 C 362.960938 245.976562 365.945312 244.484375 371.769531 241.195312 C 354.75 265.992188 339.667969 319.765625 344.445312 350.089844 C 338.175781 349.640625 335.1875 349.34375 328.917969 349.191406 C 324.882812 332.3125 331.902344 313.492188 336.234375 297.660156 C 328.019531 313.34375 316.671875 331.117188 314.730469 349.34375 C 313.835938 349.34375 313.386719 349.34375 312.34375 349.492188 C 300.695312 336.347656 301.742188 323.050781 303.085938 300.050781 Z M 303.085938 300.050781 " fill-opacity="1" fill-rule="nonzero"/><path fill="#2e266d" d="M 367.886719 352.480469 C 361.617188 351.730469 358.628906 351.285156 352.359375 350.6875 C 348.027344 318.722656 362.214844 264.199219 378.339844 237.015625 C 383.417969 233.578125 385.957031 231.636719 390.882812 227.902344 C 378.488281 263.601562 364.15625 314.089844 367.886719 352.480469 Z M 367.886719 352.480469 " fill-opacity="1" fill-rule="nonzero"/><path fill="#2e266d" d="M 399.246094 286.15625 C 395.363281 309.011719 389.835938 332.3125 391.03125 355.464844 C 384.910156 354.71875 381.773438 354.269531 375.503906 353.375 C 372.964844 316.628906 383.417969 257.328125 397.003906 223.121094 C 402.378906 219.238281 405.21875 217.445312 410.890625 214.160156 C 409.546875 236.117188 414.175781 258.824219 415.667969 280.78125 C 418.507812 256.582031 418.65625 231.636719 423.582031 207.738281 C 429.257812 205.347656 432.09375 204.152344 437.917969 202.359375 C 430.453125 252.25 422.984375 308.117188 421.640625 358.453125 C 415.074219 358.003906 411.789062 357.707031 405.066406 356.960938 C 399.246094 334.253906 399.542969 309.757812 399.246094 286.15625 Z M 399.246094 286.15625 " fill-opacity="1" fill-rule="nonzero"/><path fill="#2e266d" d="M 491.671875 228.351562 C 491.972656 232.832031 491.972656 235.074219 491.972656 239.851562 C 485.402344 239.851562 482.117188 240 475.546875 240.300781 C 475.546875 235.519531 475.546875 233.128906 475.398438 228.648438 C 475.097656 221.179688 472.558594 217.445312 467.332031 217.746094 C 461.957031 218.195312 459.121094 222.226562 459.269531 229.695312 C 460.015625 263.003906 454.492188 295.566406 448.816406 328.28125 C 447.472656 335.898438 449.714844 339.183594 454.941406 338.738281 C 460.167969 338.289062 463.449219 334.554688 464.945312 327.085938 C 467.632812 313.492188 469.273438 306.023438 471.515625 290.789062 C 468.230469 291.085938 466.585938 291.085938 463.152344 291.386719 C 464.644531 281.078125 465.390625 275.851562 466.140625 265.542969 C 476.144531 264.945312 481.070312 264.648438 491.074219 264.347656 C 488.6875 284.960938 485.847656 304.976562 480.921875 325.144531 C 475.992188 347.101562 467.332031 357.257812 452.253906 358.601562 C 437.171875 359.949219 429.109375 351.285156 432.542969 328.878906 C 437.917969 296.761719 443.144531 264.648438 443.144531 231.9375 C 443.144531 210.128906 452.699219 197.878906 468.078125 196.535156 C 483.460938 195.191406 490.625 206.09375 491.671875 228.351562 Z M 491.671875 228.351562 " fill-opacity="1" fill-rule="nonzero"/><path fill="#2e266d" d="M 504.511719 319.617188 C 505.707031 315.582031 506.304688 313.492188 507.5 309.160156 C 513.769531 307.519531 516.757812 306.621094 522.878906 304.53125 C 521.535156 308.5625 520.9375 310.65625 519.59375 314.390625 C 517.355469 320.8125 518.699219 322.605469 523.476562 320.214844 C 528.253906 317.824219 531.839844 313.941406 534.375 307.816406 C 537.363281 300.496094 538.855469 296.613281 541.246094 288.398438 C 543.335938 281.527344 541.542969 278.988281 536.316406 280.632812 C 520.789062 285.710938 515.863281 273.910156 516.457031 250.757812 C 516.757812 241.496094 516.609375 237.015625 516.011719 228.648438 C 514.367188 207.589844 522.132812 200.417969 537.363281 198.476562 C 552.59375 196.535156 560.65625 200.269531 562.746094 219.238281 C 563.195312 222.972656 563.34375 225.066406 563.492188 229.097656 C 557.519531 231.636719 554.535156 232.980469 548.261719 234.773438 C 548.113281 230.742188 547.964844 228.648438 547.667969 224.765625 C 547.070312 218.34375 544.230469 215.953125 539.003906 216.847656 C 533.78125 217.746094 531.390625 221.179688 531.988281 227.902344 C 532.734375 235.96875 532.882812 240.300781 532.585938 249.113281 C 532.4375 256.433594 534.675781 259.867188 539.902344 258.523438 C 555.730469 254.339844 562.894531 261.660156 556.175781 281.675781 C 553.488281 289.59375 551.847656 293.476562 548.710938 300.347656 C 540.648438 317.824219 530.195312 327.832031 516.90625 335.75 C 503.617188 343.816406 498.539062 339.929688 504.511719 319.617188 Z M 504.511719 319.617188 " fill-opacity="1" fill-rule="nonzero"/><path fill="#2e266d" d="M 555.730469 296.316406 C 567.226562 268.53125 571.40625 245.976562 570.214844 216.101562 C 567.972656 197.132812 573.496094 185.480469 587.234375 178.460938 C 600.972656 171.441406 611.273438 176.667969 614.410156 195.636719 C 616.800781 226.109375 612.769531 246.574219 599.03125 273.910156 C 588.878906 290.191406 575.738281 298.105469 562.597656 306.324219 C 549.308594 314.238281 547.21875 313.492188 555.730469 296.316406 Z M 584.847656 208.78125 C 586.488281 238.957031 582.160156 260.765625 569.914062 288.25 C 566.929688 293.925781 567.675781 294.96875 572.304688 292.429688 C 576.933594 289.890625 581.113281 286.15625 584.25 280.632812 C 597.238281 253.296875 601.421875 232.085938 599.480469 201.761719 C 598.582031 195.488281 595.449219 193.398438 590.667969 195.789062 C 585.890625 198.175781 583.949219 202.507812 584.847656 208.78125 Z M 584.847656 208.78125 " fill-opacity="1" fill-rule="nonzero"/><path fill="#2e266d" d="M 606.496094 270.773438 C 620.683594 243.585938 624.714844 223.273438 622.027344 192.800781 C 618.589844 173.828125 622.773438 162.925781 637.855469 159.640625 C 652.933594 156.351562 665.476562 164.269531 670.105469 183.539062 C 674.585938 214.757812 671.152344 233.578125 655.023438 260.765625 C 643.230469 276.449219 627.253906 281.378906 611.871094 284.8125 C 596.492188 288.25 596.042969 287.054688 606.496094 270.773438 Z M 637.703125 188.320312 C 640.839844 219.089844 636.957031 238.808594 622.027344 265.992188 C 618.441406 271.371094 619.039062 272.863281 624.414062 271.816406 C 629.789062 270.773438 634.71875 268.082031 638.449219 262.707031 C 653.980469 235.519531 657.5625 216.25 653.832031 185.183594 C 652.335938 178.757812 648.753906 176.070312 643.527344 177.117188 C 638.300781 178.160156 636.511719 181.894531 637.703125 188.320312 Z M 637.703125 188.320312 " fill-opacity="1" fill-rule="nonzero"/><path fill="#2e266d" d="M 697.132812 224.46875 C 692.207031 246.722656 677.570312 264.945312 659.058594 277.644531 C 652.785156 278.6875 649.648438 278.988281 643.378906 279.882812 C 683.992188 242.390625 688.472656 206.542969 668.613281 156.054688 C 675.332031 155.90625 678.617188 156.054688 685.1875 157.398438 C 699.820312 176.519531 712.0625 199.074219 714.15625 223.570312 C 714.003906 197.28125 710.421875 185.628906 698.328125 162.476562 C 703.554688 165.765625 705.792969 168.003906 709.824219 172.785156 C 737.300781 214.460938 732.96875 244.484375 689.816406 269.726562 C 683.394531 272.414062 680.109375 273.460938 673.539062 275.105469 C 691.457031 262.707031 694.144531 244.183594 697.132812 224.46875 Z M 697.132812 224.46875 " fill-opacity="1" fill-rule="nonzero"/></svg>