<svg xmlns="http://www.w3.org/2000/svg" xmlns:xlink="http://www.w3.org/1999/xlink" width="800" zoomAndPan="magnify" viewBox="0 0 600 337.499995" height="450" preserveAspectRatio="xMidYMid meet" version="1.0"><defs><filter x="0%" y="0%" width="100%" height="100%" id="4989626821"><feColorMatrix values="0 0 0 0 1 0 0 0 0 1 0 0 0 0 1 0 0 0 1 0" color-interpolation-filters="sRGB"/></filter><g/><clipPath id="44e3d627c3"><path d="M 0.445312 0 L 599.554688 0 L 599.554688 337 L 0.445312 337 Z M 0.445312 0 " clip-rule="nonzero"/></clipPath><mask id="7f059a7de8"><g filter="url(#4989626821)"><rect x="-60" width="720" fill="#000000" y="-33.75" height="404.999994" fill-opacity="0.0392"/></g></mask><clipPath id="016eaeb737"><path d="M 0.527344 0 L 471 0 L 471 337 L 0.527344 337 Z M 0.527344 0 " clip-rule="nonzero"/></clipPath><clipPath id="ee79811589"><rect x="0" width="472" y="0" height="337"/></clipPath><clipPath id="1049dc5f12"><path d="M 397 123.789062 L 434 123.789062 L 434 177 L 397 177 Z M 397 123.789062 " clip-rule="nonzero"/></clipPath></defs><g clip-path="url(#44e3d627c3)"><path fill="#ffffff" d="M 0.445312 0 L 599.554688 0 L 599.554688 344.488281 L 0.445312 344.488281 Z M 0.445312 0 " fill-opacity="1" fill-rule="nonzero"/><path fill="#ffffff" d="M 0.445312 0 L 599.554688 0 L 599.554688 337 L 0.445312 337 Z M 0.445312 0 " fill-opacity="1" fill-rule="nonzero"/><path fill="#f4f6fc" d="M 0.445312 0 L 599.554688 0 L 599.554688 337 L 0.445312 337 Z M 0.445312 0 " fill-opacity="1" fill-rule="nonzero"/></g><g mask="url(#7f059a7de8)"><g transform="matrix(1, 0, 0, 1, 79, 0)"><g clip-path="url(#ee79811589)"><g clip-path="url(#016eaeb737)"><path fill="#233dff" d="M 88.457031 -163.664062 L 39.589844 -218.753906 L 0.726562 -218.753906 L 0.726562 -92.667969 L 42.828125 -92.667969 L 42.828125 -147.167969 L 91.695312 -92.667969 L 130.261719 -92.667969 L 130.261719 -218.753906 L 88.457031 -218.753906 Z M 93.460938 -213.449219 L 124.964844 -213.449219 L 124.964844 -97.96875 L 93.757812 -97.96875 L 37.527344 -160.71875 L 37.527344 -97.96875 L 6.027344 -97.96875 L 6.027344 -213.449219 L 37.234375 -213.449219 L 93.460938 -149.816406 Z M 197.382812 -140.097656 L 255.675781 -140.097656 L 255.675781 -173.089844 L 197.382812 -173.089844 L 197.382812 -184.578125 L 265.390625 -184.578125 L 265.390625 -218.753906 L 152.046875 -218.753906 L 152.046875 -92.667969 L 266.566406 -92.667969 L 266.566406 -127.136719 L 197.382812 -127.136719 Z M 261.5625 -121.832031 L 261.5625 -97.96875 L 157.347656 -97.96875 L 157.347656 -213.449219 L 260.382812 -213.449219 L 260.382812 -189.585938 L 192.378906 -189.585938 L 192.378906 -167.789062 L 250.667969 -167.789062 L 250.667969 -145.105469 L 192.378906 -145.105469 L 192.378906 -121.539062 L 261.5625 -121.539062 Z M 362.835938 -92.667969 L 377.257812 -158.363281 L 391.683594 -92.667969 L 439.964844 -92.667969 L 470.582031 -218.753906 L 424.953125 -218.753906 L 413.175781 -158.65625 L 399.929688 -218.753906 L 356.0625 -218.753906 L 343.699219 -158.65625 L 331.039062 -218.753906 L 283.9375 -218.753906 L 314.554688 -92.667969 Z M 326.917969 -213.449219 L 341.34375 -145.105469 L 346.347656 -145.105469 L 360.480469 -213.449219 L 395.804688 -213.449219 L 410.820312 -145.105469 L 415.824219 -145.105469 L 429.367188 -213.449219 L 463.8125 -213.449219 L 435.84375 -97.96875 L 395.804688 -97.96875 L 379.613281 -171.617188 L 374.609375 -171.617188 L 358.417969 -97.96875 L 318.378906 -97.96875 L 290.414062 -213.449219 Z M 88.457031 -9.59375 L 39.589844 -64.976562 L 0.726562 -64.976562 L 0.726562 61.109375 L 42.828125 61.109375 L 42.828125 6.609375 L 91.695312 61.109375 L 130.261719 61.109375 L 130.261719 -64.976562 L 88.457031 -64.976562 Z M 93.460938 -59.675781 L 124.964844 -59.675781 L 124.964844 55.804688 L 93.757812 55.804688 L 37.527344 -6.941406 L 37.527344 55.804688 L 6.027344 55.804688 L 6.027344 -59.675781 L 37.234375 -59.675781 L 93.460938 3.957031 Z M 197.382812 13.679688 L 255.675781 13.679688 L 255.675781 -19.316406 L 197.382812 -19.316406 L 197.382812 -30.804688 L 265.390625 -30.804688 L 265.390625 -64.976562 L 152.046875 -64.976562 L 152.046875 61.109375 L 266.566406 61.109375 L 266.566406 26.933594 L 197.382812 26.933594 Z M 261.5625 31.941406 L 261.5625 55.804688 L 157.347656 55.804688 L 157.347656 -59.675781 L 260.382812 -59.675781 L 260.382812 -35.8125 L 192.378906 -35.8125 L 192.378906 -14.011719 L 250.667969 -14.011719 L 250.667969 8.671875 L 192.378906 8.671875 L 192.378906 32.238281 L 261.5625 32.238281 Z M 413.175781 -4.585938 L 399.929688 -64.683594 L 356.0625 -64.683594 L 343.699219 -4.585938 L 331.039062 -64.683594 L 283.9375 -64.683594 L 314.257812 61.109375 L 362.835938 61.109375 L 377.257812 -4.585938 L 391.683594 61.109375 L 439.964844 61.109375 L 470.582031 -64.976562 L 424.953125 -64.976562 Z M 463.8125 -59.675781 L 435.84375 55.804688 L 395.804688 55.804688 L 379.613281 -17.84375 L 374.609375 -17.84375 L 358.417969 55.804688 L 318.378906 55.804688 L 290.414062 -59.675781 L 326.917969 -59.675781 L 341.34375 8.671875 L 346.347656 8.671875 L 360.480469 -59.675781 L 395.804688 -59.675781 L 410.820312 8.671875 L 415.824219 8.671875 L 429.367188 -59.675781 Z M 88.457031 144.179688 L 39.589844 89.09375 L 0.726562 89.09375 L 0.726562 215.175781 L 42.828125 215.175781 L 42.828125 160.679688 L 91.695312 215.175781 L 130.261719 215.175781 L 130.261719 89.09375 L 88.457031 89.09375 Z M 93.460938 94.101562 L 124.964844 94.101562 L 124.964844 209.582031 L 93.757812 209.582031 L 37.527344 146.832031 L 37.527344 209.582031 L 6.027344 209.582031 L 6.027344 94.101562 L 37.234375 94.101562 L 93.460938 157.734375 Z M 197.382812 167.453125 L 255.675781 167.453125 L 255.675781 134.460938 L 197.382812 134.460938 L 197.382812 122.972656 L 265.390625 122.972656 L 265.390625 88.800781 L 152.046875 88.800781 L 152.046875 214.882812 L 266.566406 214.882812 L 266.566406 180.710938 L 197.382812 180.710938 Z M 261.5625 186.011719 L 261.5625 209.875 L 157.347656 209.875 L 157.347656 94.394531 L 260.382812 94.394531 L 260.382812 118.257812 L 192.378906 118.257812 L 192.378906 140.058594 L 250.667969 140.058594 L 250.667969 162.742188 L 192.378906 162.742188 L 192.378906 186.308594 L 261.5625 186.308594 Z M 413.175781 149.191406 L 399.929688 89.09375 L 356.0625 89.09375 L 343.699219 149.191406 L 331.039062 89.09375 L 283.9375 89.09375 L 314.554688 215.175781 L 362.835938 215.175781 L 377.257812 149.484375 L 391.683594 215.175781 L 439.964844 215.175781 L 470.582031 89.09375 L 424.953125 89.09375 Z M 463.8125 94.101562 L 435.84375 209.582031 L 395.804688 209.582031 L 379.613281 135.933594 L 374.609375 135.933594 L 358.417969 209.582031 L 318.378906 209.582031 L 290.414062 94.101562 L 326.917969 94.101562 L 341.34375 162.445312 L 346.347656 162.445312 L 360.480469 94.101562 L 395.804688 94.101562 L 410.820312 162.445312 L 415.824219 162.445312 L 429.367188 94.101562 Z M 90.8125 237.859375 L 127.613281 237.859375 L 127.613281 358.640625 L 92.875 358.640625 L 40.175781 300.019531 L 40.175781 358.640625 L 3.378906 358.640625 L 3.378906 237.859375 L 38.410156 237.859375 L 91.109375 297.367188 L 91.109375 237.859375 Z M 195.027344 329.773438 L 264.210938 329.773438 L 264.210938 358.640625 L 154.695312 358.640625 L 154.695312 237.859375 L 262.738281 237.859375 L 262.738281 266.730469 L 195.027344 266.730469 L 195.027344 283.226562 L 253.320312 283.226562 L 253.320312 310.917969 L 195.027344 310.917969 Z M 427.011719 237.859375 L 467.050781 237.859375 L 437.609375 358.640625 L 393.453125 358.640625 L 377.257812 284.996094 L 376.671875 284.996094 L 360.480469 358.640625 L 316.320312 358.640625 L 287.175781 237.859375 L 328.980469 237.859375 L 343.402344 306.207031 L 343.992188 306.207031 L 358.125 237.859375 L 397.574219 237.859375 L 412.585938 306.207031 L 413.46875 306.207031 Z M 427.011719 237.859375 " fill-opacity="1" fill-rule="nonzero"/></g></g></g></g><path fill="#2e266d" d="M 222.015625 170.453125 C 221.3125 171.664062 220.992188 172.300781 220.292969 173.636719 C 217.417969 173.574219 215.949219 173.574219 213.078125 173.574219 C 213.777344 172.234375 214.160156 171.597656 214.863281 170.453125 C 216.078125 168.539062 215.949219 167.457031 213.652344 167.648438 C 211.417969 167.839844 209.246094 168.988281 207.96875 170.835938 C 202.03125 179.5 198.390625 190.203125 198.964844 200.777344 C 199.222656 203.328125 200.6875 204.792969 202.988281 205.109375 C 205.285156 205.492188 206.117188 204.34375 205.925781 201.734375 C 205.796875 200.140625 205.796875 199.375 205.925781 197.71875 C 208.796875 197.910156 210.265625 197.910156 213.203125 197.847656 C 213.078125 199.503906 213.078125 200.269531 213.140625 201.859375 C 213.460938 209.695312 212.628906 212.882812 206.054688 211.542969 C 199.476562 210.207031 193.792969 205.363281 192.773438 198.484375 C 191.878906 188.800781 195.515625 178.988281 201.582031 171.535156 C 205.542969 166.949219 213.394531 163.378906 219.910156 162.425781 C 226.421875 161.53125 225.464844 164.527344 222.015625 170.453125 Z M 222.015625 170.453125 " fill-opacity="1" fill-rule="nonzero"/><path fill="#2e266d" d="M 216.714844 201.734375 C 216.78125 190.839844 220.292969 180.007812 225.527344 170.515625 C 228.910156 164.589844 236.511719 162.296875 243.023438 163.1875 C 249.535156 164.082031 249.28125 166.628906 246.472656 171.917969 C 242.128906 180.582031 238.808594 190.203125 237.914062 199.886719 C 237.59375 206.640625 236.125 209.25 229.488281 210.460938 C 222.847656 211.671875 216.972656 209.507812 216.714844 201.734375 Z M 232.550781 170.960938 C 227.632812 180.199219 224.121094 190.710938 223.804688 201.289062 C 223.804688 203.773438 225.207031 204.792969 227.507812 204.472656 C 229.804688 204.21875 230.761719 203.007812 230.828125 200.652344 C 231.402344 190.519531 234.785156 180.453125 239.445312 171.472656 C 240.40625 169.625 240.148438 168.539062 237.851562 168.285156 C 235.617188 168.160156 233.636719 169.050781 232.550781 170.960938 Z M 232.550781 170.960938 " fill-opacity="1" fill-rule="nonzero"/><path fill="#2e266d" d="M 251.835938 185.296875 C 249.535156 191.285156 247.171875 200.523438 249.597656 206.957031 C 246.917969 207.339844 245.578125 207.53125 242.894531 207.976562 C 237.785156 195.808594 246.664062 172.683594 256.175781 164.71875 C 258.984375 164.910156 260.390625 164.972656 263.199219 164.910156 C 259.496094 169.941406 259.878906 174.273438 259.304688 183.957031 C 264.285156 175.804688 268.179688 169.878906 274.820312 163.0625 C 277.4375 162.234375 278.714844 161.597656 281.207031 160.195312 C 273.925781 170.769531 267.476562 193.707031 269.519531 206.640625 C 266.839844 206.449219 265.5625 206.320312 262.878906 206.257812 C 261.15625 199.058594 264.15625 191.03125 266.007812 184.277344 C 262.496094 190.964844 257.644531 198.546875 256.816406 206.320312 C 256.429688 206.320312 256.238281 206.320312 255.792969 206.382812 C 250.8125 200.777344 251.257812 195.109375 251.835938 185.296875 Z M 251.835938 185.296875 " fill-opacity="1" fill-rule="nonzero"/><path fill="#2e266d" d="M 279.546875 207.660156 C 276.863281 207.339844 275.585938 207.148438 272.90625 206.894531 C 271.054688 193.261719 277.121094 170.007812 284.015625 158.410156 C 286.1875 156.945312 287.273438 156.117188 289.378906 154.523438 C 284.078125 169.75 277.949219 191.285156 279.546875 207.660156 Z M 279.546875 207.660156 " fill-opacity="1" fill-rule="nonzero"/><path fill="#2e266d" d="M 292.953125 179.371094 C 291.292969 189.117188 288.933594 199.058594 289.441406 208.933594 C 286.824219 208.613281 285.484375 208.421875 282.800781 208.039062 C 281.714844 192.367188 286.1875 167.074219 291.996094 152.484375 C 294.296875 150.828125 295.507812 150.066406 297.933594 148.664062 C 297.359375 158.027344 299.339844 167.710938 299.976562 177.078125 C 301.191406 166.757812 301.253906 156.117188 303.363281 145.925781 C 305.789062 144.90625 307 144.394531 309.492188 143.628906 C 306.300781 164.910156 303.105469 188.738281 302.53125 210.207031 C 299.722656 210.015625 298.316406 209.886719 295.445312 209.570312 C 292.953125 199.886719 293.082031 189.4375 292.953125 179.371094 Z M 292.953125 179.371094 " fill-opacity="1" fill-rule="nonzero"/><path fill="#2e266d" d="M 332.480469 154.714844 C 332.605469 156.628906 332.605469 157.582031 332.605469 159.621094 C 329.796875 159.621094 328.390625 159.683594 325.582031 159.8125 C 325.582031 157.773438 325.582031 156.753906 325.519531 154.84375 C 325.390625 151.65625 324.304688 150.066406 322.070312 150.191406 C 319.773438 150.382812 318.558594 152.105469 318.621094 155.289062 C 318.941406 169.496094 316.578125 183.386719 314.152344 197.335938 C 313.578125 200.585938 314.535156 201.988281 316.769531 201.796875 C 319.007812 201.605469 320.410156 200.011719 321.050781 196.828125 C 322.199219 191.03125 322.902344 187.84375 323.859375 181.347656 C 322.453125 181.472656 321.75 181.472656 320.28125 181.601562 C 320.921875 177.207031 321.242188 174.976562 321.558594 170.578125 C 325.839844 170.324219 327.945312 170.199219 332.222656 170.070312 C 331.203125 178.863281 329.988281 187.398438 327.882812 196 C 325.773438 205.363281 322.070312 209.695312 315.621094 210.269531 C 309.171875 210.84375 305.726562 207.148438 307.195312 197.59375 C 309.492188 183.894531 311.726562 170.199219 311.726562 156.246094 C 311.726562 146.945312 315.8125 141.71875 322.390625 141.144531 C 328.964844 140.574219 332.03125 145.222656 332.480469 154.714844 Z M 332.480469 154.714844 " fill-opacity="1" fill-rule="nonzero"/><path fill="#2e266d" d="M 337.96875 193.640625 C 338.480469 191.921875 338.734375 191.03125 339.246094 189.183594 C 341.929688 188.480469 343.207031 188.101562 345.824219 187.207031 C 345.25 188.929688 344.992188 189.820312 344.417969 191.414062 C 343.460938 194.152344 344.035156 194.917969 346.078125 193.898438 C 348.121094 192.878906 349.65625 191.222656 350.738281 188.609375 C 352.015625 185.488281 352.65625 183.832031 353.675781 180.328125 C 354.570312 177.398438 353.804688 176.3125 351.570312 177.015625 C 344.929688 179.179688 342.824219 174.148438 343.078125 164.273438 C 343.207031 160.324219 343.140625 158.410156 342.886719 154.84375 C 342.183594 145.859375 345.503906 142.800781 352.015625 141.972656 C 358.53125 141.144531 361.976562 142.738281 362.871094 150.828125 C 363.0625 152.421875 363.128906 153.316406 363.191406 155.035156 C 360.636719 156.117188 359.359375 156.691406 356.679688 157.457031 C 356.613281 155.734375 356.550781 154.84375 356.421875 153.1875 C 356.167969 150.449219 354.953125 149.429688 352.71875 149.808594 C 350.484375 150.191406 349.464844 151.65625 349.71875 154.523438 C 350.039062 157.964844 350.101562 159.8125 349.972656 163.570312 C 349.910156 166.695312 350.867188 168.160156 353.101562 167.585938 C 359.871094 165.800781 362.9375 168.921875 360.0625 177.460938 C 358.914062 180.835938 358.210938 182.492188 356.871094 185.425781 C 353.421875 192.878906 348.953125 197.144531 343.269531 200.523438 C 337.585938 203.964844 335.414062 202.308594 337.96875 193.640625 Z M 337.96875 193.640625 " fill-opacity="1" fill-rule="nonzero"/><path fill="#2e266d" d="M 359.871094 183.703125 C 364.789062 171.855469 366.574219 162.234375 366.0625 149.492188 C 365.105469 141.402344 367.46875 136.429688 373.34375 133.4375 C 379.21875 130.441406 383.625 132.671875 384.964844 140.765625 C 385.984375 153.761719 384.261719 162.488281 378.386719 174.148438 C 374.046875 181.089844 368.425781 184.46875 362.808594 187.972656 C 357.125 191.347656 356.230469 191.03125 359.871094 183.703125 Z M 372.320312 146.371094 C 373.023438 159.238281 371.171875 168.539062 365.9375 180.261719 C 364.660156 182.683594 364.980469 183.128906 366.957031 182.046875 C 368.9375 180.964844 370.726562 179.371094 372.066406 177.015625 C 377.621094 165.355469 379.410156 156.308594 378.578125 143.375 C 378.195312 140.699219 376.855469 139.808594 374.8125 140.828125 C 372.769531 141.847656 371.9375 143.695312 372.320312 146.371094 Z M 372.320312 146.371094 " fill-opacity="1" fill-rule="nonzero"/><path fill="#2e266d" d="M 381.582031 172.808594 C 387.644531 161.214844 389.371094 152.550781 388.222656 139.554688 C 386.753906 131.460938 388.539062 126.8125 394.988281 125.410156 C 401.4375 124.007812 406.800781 127.386719 408.78125 135.601562 C 410.695312 148.917969 409.226562 156.945312 402.332031 168.539062 C 397.289062 175.230469 390.457031 177.332031 383.878906 178.796875 C 377.300781 180.261719 377.109375 179.753906 381.582031 172.808594 Z M 394.925781 137.640625 C 396.265625 150.765625 394.605469 159.175781 388.222656 170.769531 C 386.6875 173.0625 386.945312 173.703125 389.242188 173.253906 C 391.542969 172.808594 393.648438 171.664062 395.246094 169.371094 C 401.886719 157.773438 403.417969 149.554688 401.820312 136.304688 C 401.183594 133.566406 399.648438 132.417969 397.414062 132.863281 C 395.179688 133.308594 394.414062 134.902344 394.925781 137.640625 Z M 394.925781 137.640625 " fill-opacity="1" fill-rule="nonzero"/><g clip-path="url(#1049dc5f12)"><path fill="#2e266d" d="M 420.339844 153.058594 C 418.230469 162.550781 411.972656 170.324219 404.054688 175.738281 C 401.375 176.1875 400.035156 176.3125 397.351562 176.695312 C 414.71875 160.703125 416.632812 145.414062 408.140625 123.882812 C 411.015625 123.816406 412.421875 123.882812 415.230469 124.453125 C 421.488281 132.609375 426.722656 142.230469 427.617188 152.675781 C 427.554688 141.464844 426.019531 136.496094 420.847656 126.621094 C 423.082031 128.023438 424.042969 128.976562 425.765625 131.015625 C 437.515625 148.792969 435.664062 161.597656 417.210938 172.363281 C 414.464844 173.511719 413.058594 173.957031 410.25 174.65625 C 417.910156 169.371094 419.0625 161.46875 420.339844 153.058594 Z M 420.339844 153.058594 " fill-opacity="1" fill-rule="nonzero"/></g><path stroke-linecap="butt" transform="matrix(0.749225, 0, 0, 0.74889, 500.846689, 260.415347)" fill="none" stroke-linejoin="miter" d="M 0.00129035 0.499025 L 34.995784 0.499025 " stroke="#2e266d" stroke-width="1" stroke-opacity="1" stroke-miterlimit="4"/><g fill="#2e266d" fill-opacity="1"><g transform="translate(384.664602, 265.353341)"><g><path d="M 7.078125 0 L 2.609375 -4.9375 L 2.609375 0 L 1.203125 0 L 1.203125 -10.84375 L 2.609375 -10.84375 L 2.609375 -5.8125 L 7.09375 -10.84375 L 8.875 -10.84375 L 3.96875 -5.40625 L 8.921875 0 Z M 7.078125 0 "/></g></g></g><g fill="#2e266d" fill-opacity="1"><g transform="translate(393.969477, 265.353341)"><g><path d="M 4.703125 -8.65625 C 5.441406 -8.65625 6.085938 -8.492188 6.640625 -8.171875 C 7.203125 -7.859375 7.613281 -7.457031 7.875 -6.96875 L 7.875 -8.515625 L 9.3125 -8.515625 L 9.3125 0.1875 C 9.3125 0.96875 9.144531 1.660156 8.8125 2.265625 C 8.476562 2.867188 8.003906 3.34375 7.390625 3.6875 C 6.773438 4.03125 6.054688 4.203125 5.234375 4.203125 C 4.117188 4.203125 3.1875 3.9375 2.4375 3.40625 C 1.695312 2.875 1.257812 2.15625 1.125 1.25 L 2.515625 1.25 C 2.671875 1.757812 2.992188 2.171875 3.484375 2.484375 C 3.972656 2.804688 4.554688 2.96875 5.234375 2.96875 C 6.015625 2.96875 6.648438 2.722656 7.140625 2.234375 C 7.628906 1.753906 7.875 1.070312 7.875 0.1875 L 7.875 -1.59375 C 7.601562 -1.101562 7.191406 -0.691406 6.640625 -0.359375 C 6.085938 -0.0234375 5.441406 0.140625 4.703125 0.140625 C 3.953125 0.140625 3.265625 -0.046875 2.640625 -0.421875 C 2.023438 -0.796875 1.539062 -1.316406 1.1875 -1.984375 C 0.84375 -2.660156 0.671875 -3.429688 0.671875 -4.296875 C 0.671875 -5.160156 0.84375 -5.921875 1.1875 -6.578125 C 1.539062 -7.242188 2.023438 -7.753906 2.640625 -8.109375 C 3.265625 -8.472656 3.953125 -8.65625 4.703125 -8.65625 Z M 7.875 -4.28125 C 7.875 -4.914062 7.742188 -5.472656 7.484375 -5.953125 C 7.234375 -6.429688 6.882812 -6.796875 6.4375 -7.046875 C 6 -7.304688 5.515625 -7.4375 4.984375 -7.4375 C 4.460938 -7.4375 3.984375 -7.3125 3.546875 -7.0625 C 3.109375 -6.8125 2.757812 -6.445312 2.5 -5.96875 C 2.238281 -5.488281 2.109375 -4.929688 2.109375 -4.296875 C 2.109375 -3.640625 2.238281 -3.066406 2.5 -2.578125 C 2.757812 -2.097656 3.109375 -1.734375 3.546875 -1.484375 C 3.984375 -1.234375 4.460938 -1.109375 4.984375 -1.109375 C 5.515625 -1.109375 6 -1.234375 6.4375 -1.484375 C 6.882812 -1.734375 7.234375 -2.097656 7.484375 -2.578125 C 7.742188 -3.066406 7.875 -3.632812 7.875 -4.28125 Z M 7.875 -4.28125 "/></g></g></g><g fill="#2e266d" fill-opacity="1"><g transform="translate(404.470459, 265.353341)"><g><path d="M 4.21875 0.140625 C 3.5625 0.140625 2.972656 0.03125 2.453125 -0.1875 C 1.929688 -0.414062 1.519531 -0.726562 1.21875 -1.125 C 0.925781 -1.519531 0.765625 -1.976562 0.734375 -2.5 L 2.1875 -2.5 C 2.226562 -2.070312 2.425781 -1.722656 2.78125 -1.453125 C 3.144531 -1.191406 3.617188 -1.0625 4.203125 -1.0625 C 4.734375 -1.0625 5.15625 -1.175781 5.46875 -1.40625 C 5.78125 -1.644531 5.9375 -1.945312 5.9375 -2.3125 C 5.9375 -2.6875 5.769531 -2.960938 5.4375 -3.140625 C 5.101562 -3.328125 4.59375 -3.507812 3.90625 -3.6875 C 3.269531 -3.851562 2.75 -4.019531 2.34375 -4.1875 C 1.945312 -4.363281 1.609375 -4.617188 1.328125 -4.953125 C 1.046875 -5.285156 0.90625 -5.726562 0.90625 -6.28125 C 0.90625 -6.71875 1.03125 -7.113281 1.28125 -7.46875 C 1.539062 -7.832031 1.910156 -8.117188 2.390625 -8.328125 C 2.867188 -8.546875 3.414062 -8.65625 4.03125 -8.65625 C 4.96875 -8.65625 5.726562 -8.414062 6.3125 -7.9375 C 6.894531 -7.46875 7.207031 -6.816406 7.25 -5.984375 L 5.828125 -5.984375 C 5.796875 -6.429688 5.613281 -6.789062 5.28125 -7.0625 C 4.957031 -7.332031 4.523438 -7.46875 3.984375 -7.46875 C 3.472656 -7.46875 3.066406 -7.359375 2.765625 -7.140625 C 2.460938 -6.921875 2.3125 -6.632812 2.3125 -6.28125 C 2.3125 -6 2.398438 -5.765625 2.578125 -5.578125 C 2.765625 -5.398438 2.992188 -5.253906 3.265625 -5.140625 C 3.546875 -5.035156 3.929688 -4.914062 4.421875 -4.78125 C 5.023438 -4.625 5.519531 -4.460938 5.90625 -4.296875 C 6.289062 -4.140625 6.617188 -3.898438 6.890625 -3.578125 C 7.171875 -3.253906 7.316406 -2.832031 7.328125 -2.3125 C 7.328125 -1.84375 7.195312 -1.421875 6.9375 -1.046875 C 6.675781 -0.679688 6.304688 -0.390625 5.828125 -0.171875 C 5.359375 0.0351562 4.820312 0.140625 4.21875 0.140625 Z M 4.21875 0.140625 "/></g></g></g><g fill="#2e266d" fill-opacity="1"><g transform="translate(412.579213, 265.353341)"><g><path d="M 1.640625 0.09375 C 1.378906 0.09375 1.15625 0 0.96875 -0.1875 C 0.78125 -0.375 0.6875 -0.601562 0.6875 -0.875 C 0.6875 -1.144531 0.78125 -1.367188 0.96875 -1.546875 C 1.15625 -1.734375 1.378906 -1.828125 1.640625 -1.828125 C 1.898438 -1.828125 2.117188 -1.734375 2.296875 -1.546875 C 2.484375 -1.367188 2.578125 -1.144531 2.578125 -0.875 C 2.578125 -0.601562 2.484375 -0.375 2.296875 -0.1875 C 2.117188 0 1.898438 0.09375 1.640625 0.09375 Z M 1.640625 0.09375 "/></g></g></g><g fill="#2e266d" fill-opacity="1"><g transform="translate(415.841357, 265.353341)"><g/></g></g><g fill="#2e266d" fill-opacity="1"><g transform="translate(419.988939, 265.353341)"><g><path d="M 14.8125 -10.84375 L 11.671875 0 L 10.09375 0 L 7.578125 -8.71875 L 4.953125 0 L 3.390625 0.015625 L 0.359375 -10.84375 L 1.859375 -10.84375 L 4.234375 -1.640625 L 6.84375 -10.84375 L 8.421875 -10.84375 L 10.90625 -1.671875 L 13.296875 -10.84375 Z M 14.8125 -10.84375 "/></g></g></g><g fill="#2e266d" fill-opacity="1"><g transform="translate(435.150132, 265.353341)"><g><path d="M 0.671875 -4.296875 C 0.671875 -5.160156 0.84375 -5.921875 1.1875 -6.578125 C 1.539062 -7.242188 2.023438 -7.753906 2.640625 -8.109375 C 3.265625 -8.472656 3.953125 -8.65625 4.703125 -8.65625 C 5.453125 -8.65625 6.101562 -8.492188 6.65625 -8.171875 C 7.207031 -7.859375 7.613281 -7.457031 7.875 -6.96875 L 7.875 -8.515625 L 9.3125 -8.515625 L 9.3125 0 L 7.875 0 L 7.875 -1.578125 C 7.601562 -1.085938 7.1875 -0.675781 6.625 -0.34375 C 6.070312 -0.0195312 5.425781 0.140625 4.6875 0.140625 C 3.9375 0.140625 3.253906 -0.046875 2.640625 -0.421875 C 2.023438 -0.796875 1.539062 -1.316406 1.1875 -1.984375 C 0.84375 -2.660156 0.671875 -3.429688 0.671875 -4.296875 Z M 7.875 -4.28125 C 7.875 -4.914062 7.742188 -5.472656 7.484375 -5.953125 C 7.234375 -6.429688 6.882812 -6.796875 6.4375 -7.046875 C 6 -7.304688 5.515625 -7.4375 4.984375 -7.4375 C 4.460938 -7.4375 3.984375 -7.3125 3.546875 -7.0625 C 3.109375 -6.8125 2.757812 -6.445312 2.5 -5.96875 C 2.238281 -5.488281 2.109375 -4.929688 2.109375 -4.296875 C 2.109375 -3.640625 2.238281 -3.066406 2.5 -2.578125 C 2.757812 -2.097656 3.109375 -1.734375 3.546875 -1.484375 C 3.984375 -1.234375 4.460938 -1.109375 4.984375 -1.109375 C 5.515625 -1.109375 6 -1.234375 6.4375 -1.484375 C 6.882812 -1.734375 7.234375 -2.097656 7.484375 -2.578125 C 7.742188 -3.066406 7.875 -3.632812 7.875 -4.28125 Z M 7.875 -4.28125 "/></g></g></g><g fill="#2e266d" fill-opacity="1"><g transform="translate(445.651115, 265.353341)"><g><path d="M 5.421875 -8.671875 C 6.066406 -8.671875 6.644531 -8.53125 7.15625 -8.25 C 7.675781 -7.976562 8.082031 -7.566406 8.375 -7.015625 C 8.675781 -6.472656 8.828125 -5.804688 8.828125 -5.015625 L 8.828125 0 L 7.4375 0 L 7.4375 -4.8125 C 7.4375 -5.664062 7.222656 -6.316406 6.796875 -6.765625 C 6.367188 -7.222656 5.785156 -7.453125 5.046875 -7.453125 C 4.304688 -7.453125 3.710938 -7.21875 3.265625 -6.75 C 2.828125 -6.28125 2.609375 -5.597656 2.609375 -4.703125 L 2.609375 0 L 1.203125 0 L 1.203125 -11.5 L 2.609375 -11.5 L 2.609375 -7.3125 C 2.890625 -7.738281 3.273438 -8.070312 3.765625 -8.3125 C 4.265625 -8.550781 4.816406 -8.671875 5.421875 -8.671875 Z M 5.421875 -8.671875 "/></g></g></g><g fill="#2e266d" fill-opacity="1"><g transform="translate(455.592879, 265.353341)"><g><path d="M 8.53125 -8.515625 L 3.40625 4.015625 L 1.9375 4.015625 L 3.625 -0.09375 L 0.1875 -8.515625 L 1.75 -8.515625 L 4.4375 -1.609375 L 7.078125 -8.515625 Z M 8.53125 -8.515625 "/></g></g></g><g fill="#2e266d" fill-opacity="1"><g transform="translate(464.338522, 265.353341)"><g><path d="M 8.75 -8.515625 L 8.75 0 L 7.34375 0 L 7.34375 -1.265625 C 7.070312 -0.828125 6.691406 -0.484375 6.203125 -0.234375 C 5.722656 0.00390625 5.195312 0.125 4.625 0.125 C 3.957031 0.125 3.359375 -0.0078125 2.828125 -0.28125 C 2.296875 -0.5625 1.878906 -0.972656 1.578125 -1.515625 C 1.273438 -2.066406 1.125 -2.738281 1.125 -3.53125 L 1.125 -8.515625 L 2.515625 -8.515625 L 2.515625 -3.71875 C 2.515625 -2.875 2.726562 -2.226562 3.15625 -1.78125 C 3.582031 -1.332031 4.160156 -1.109375 4.890625 -1.109375 C 5.648438 -1.109375 6.25 -1.335938 6.6875 -1.796875 C 7.125 -2.265625 7.34375 -2.945312 7.34375 -3.84375 L 7.34375 -8.515625 Z M 8.75 -8.515625 "/></g></g></g><g fill="#2e266d" fill-opacity="1"><g transform="translate(474.280286, 265.353341)"><g/></g></g><g fill="#2e266d" fill-opacity="1"><g transform="translate(478.427867, 265.353341)"><g><path d="M 9.546875 -10.84375 L 9.546875 0 L 8.125 0 L 8.125 -4.90625 L 2.609375 -4.90625 L 2.609375 0 L 1.203125 0 L 1.203125 -10.84375 L 2.609375 -10.84375 L 2.609375 -6.078125 L 8.125 -6.078125 L 8.125 -10.84375 Z M 9.546875 -10.84375 "/></g></g></g></svg>