<svg xmlns="http://www.w3.org/2000/svg" xmlns:xlink="http://www.w3.org/1999/xlink" width="579" zoomAndPan="magnify" viewBox="0 0 434.25 645.749981" height="861" preserveAspectRatio="xMidYMid meet" version="1.0"><defs><filter x="0%" y="0%" width="100%" height="100%" id="e794efc660"><feColorMatrix values="0 0 0 0 1 0 0 0 0 1 0 0 0 0 1 0 0 0 1 0" color-interpolation-filters="sRGB"/></filter><g/><clipPath id="f7c76b290c"><path d="M 0 0.433594 L 433.5 0.433594 L 433.5 645.070312 L 0 645.070312 Z M 0 0.433594 " clip-rule="nonzero"/></clipPath><clipPath id="41358e7b20"><path d="M 0 0.433594 L 433.5 0.433594 L 433.5 620 L 0 620 Z M 0 0.433594 " clip-rule="nonzero"/></clipPath><mask id="493d79bb01"><g filter="url(#e794efc660)"><rect x="-43.425" width="521.1" fill="#000000" y="-64.574998" height="774.899977" fill-opacity="0.0392"/></g></mask><clipPath id="83e6b9d20a"><path d="M 0 0.433594 L 433.5 0.433594 L 433.5 618.863281 L 0 618.863281 Z M 0 0.433594 " clip-rule="nonzero"/></clipPath><clipPath id="b09b183dd3"><rect x="0" width="434" y="0" height="620"/></clipPath><clipPath id="8b5006f358"><path d="M 324 264.449219 L 372 264.449219 L 372 334 L 324 334 Z M 324 264.449219 " clip-rule="nonzero"/></clipPath></defs><g clip-path="url(#f7c76b290c)"><path fill="#ffffff" d="M 0 0.433594 L 434.25 0.433594 L 434.25 653.304688 L 0 653.304688 Z M 0 0.433594 " fill-opacity="1" fill-rule="nonzero"/><path fill="#ffffff" d="M 0 0.433594 L 433.5 0.433594 L 433.5 645.070312 L 0 645.070312 Z M 0 0.433594 " fill-opacity="1" fill-rule="nonzero"/><path fill="#f4f6fc" d="M 0 0.433594 L 433.5 0.433594 L 433.5 645.070312 L 0 645.070312 Z M 0 0.433594 " fill-opacity="1" fill-rule="nonzero"/></g><g clip-path="url(#41358e7b20)"><g mask="url(#493d79bb01)"><g transform="matrix(1, 0, 0, 1, 0, 0.000000000000097089)"><g clip-path="url(#b09b183dd3)"><g clip-path="url(#83e6b9d20a)"><path fill="#233dff" d="M 59.09375 59.433594 L 6.742188 0.433594 L -34.890625 0.433594 L -34.890625 135.476562 L 10.210938 135.476562 L 10.210938 77.105469 L 62.5625 135.476562 L 103.878906 135.476562 L 103.878906 0.433594 L 59.09375 0.433594 Z M 64.453125 6.113281 L 98.199219 6.113281 L 98.199219 129.796875 L 64.769531 129.796875 L 4.53125 62.589844 L 4.53125 129.796875 L -29.210938 129.796875 L -29.210938 6.113281 L 4.21875 6.113281 L 64.453125 74.265625 Z M 175.785156 84.675781 L 238.230469 84.675781 L 238.230469 49.339844 L 175.785156 49.339844 L 175.785156 37.03125 L 248.636719 37.03125 L 248.636719 0.433594 L 127.214844 0.433594 L 127.214844 135.476562 L 249.898438 135.476562 L 249.898438 98.5625 L 175.785156 98.5625 Z M 244.535156 104.238281 L 244.535156 129.796875 L 132.890625 129.796875 L 132.890625 6.113281 L 243.273438 6.113281 L 243.273438 31.667969 L 170.421875 31.667969 L 170.421875 55.019531 L 232.867188 55.019531 L 232.867188 79.3125 L 170.421875 79.3125 L 170.421875 104.554688 L 244.535156 104.554688 Z M 353.027344 135.476562 L 368.480469 65.113281 L 383.933594 135.476562 L 435.65625 135.476562 L 468.457031 0.433594 L 419.570312 0.433594 L 406.957031 64.800781 L 392.765625 0.433594 L 345.773438 0.433594 L 332.527344 64.800781 L 318.964844 0.433594 L 268.503906 0.433594 L 301.304688 135.476562 Z M 314.550781 6.113281 L 330.003906 79.3125 L 335.367188 79.3125 L 350.503906 6.113281 L 388.347656 6.113281 L 404.433594 79.3125 L 409.796875 79.3125 L 424.304688 6.113281 L 461.203125 6.113281 L 431.242188 129.796875 L 388.347656 129.796875 L 371.003906 50.917969 L 365.640625 50.917969 L 348.296875 129.796875 L 305.40625 129.796875 L 275.445312 6.113281 Z M 59.09375 224.457031 L 6.742188 165.136719 L -34.890625 165.136719 L -34.890625 300.183594 L 10.210938 300.183594 L 10.210938 241.808594 L 62.5625 300.183594 L 103.878906 300.183594 L 103.878906 165.136719 L 59.09375 165.136719 Z M 64.453125 170.816406 L 98.199219 170.816406 L 98.199219 294.503906 L 64.769531 294.503906 L 4.53125 227.296875 L 4.53125 294.503906 L -29.210938 294.503906 L -29.210938 170.816406 L 4.21875 170.816406 L 64.453125 238.96875 Z M 175.785156 249.382812 L 238.230469 249.382812 L 238.230469 214.042969 L 175.785156 214.042969 L 175.785156 201.738281 L 248.636719 201.738281 L 248.636719 165.136719 L 127.214844 165.136719 L 127.214844 300.183594 L 249.898438 300.183594 L 249.898438 263.582031 L 175.785156 263.582031 Z M 244.535156 268.945312 L 244.535156 294.503906 L 132.890625 294.503906 L 132.890625 170.816406 L 243.273438 170.816406 L 243.273438 196.375 L 170.421875 196.375 L 170.421875 219.722656 L 232.867188 219.722656 L 232.867188 244.019531 L 170.421875 244.019531 L 170.421875 269.261719 L 244.535156 269.261719 Z M 406.957031 229.820312 L 392.765625 165.453125 L 345.773438 165.453125 L 332.527344 229.820312 L 318.964844 165.453125 L 268.503906 165.453125 L 300.988281 300.183594 L 353.027344 300.183594 L 368.480469 229.820312 L 383.933594 300.183594 L 435.65625 300.183594 L 468.457031 165.136719 L 419.570312 165.136719 Z M 461.203125 170.816406 L 431.242188 294.503906 L 388.347656 294.503906 L 371.003906 215.621094 L 365.640625 215.621094 L 348.296875 294.503906 L 305.40625 294.503906 L 275.445312 170.816406 L 314.550781 170.816406 L 330.003906 244.019531 L 335.367188 244.019531 L 350.503906 170.816406 L 388.347656 170.816406 L 404.433594 244.019531 L 409.796875 244.019531 L 424.304688 170.816406 Z M 59.09375 389.160156 L 6.742188 330.15625 L -34.890625 330.15625 L -34.890625 465.203125 L 10.210938 465.203125 L 10.210938 406.828125 L 62.5625 465.203125 L 103.878906 465.203125 L 103.878906 330.15625 L 59.09375 330.15625 Z M 64.453125 335.519531 L 98.199219 335.519531 L 98.199219 459.207031 L 64.769531 459.207031 L 4.53125 392 L 4.53125 459.207031 L -29.210938 459.207031 L -29.210938 335.519531 L 4.21875 335.519531 L 64.453125 403.675781 Z M 175.785156 414.085938 L 238.230469 414.085938 L 238.230469 378.75 L 175.785156 378.75 L 175.785156 366.441406 L 248.636719 366.441406 L 248.636719 329.839844 L 127.214844 329.839844 L 127.214844 464.886719 L 249.898438 464.886719 L 249.898438 428.285156 L 175.785156 428.285156 Z M 244.535156 433.964844 L 244.535156 459.523438 L 132.890625 459.523438 L 132.890625 335.835938 L 243.273438 335.835938 L 243.273438 361.394531 L 170.421875 361.394531 L 170.421875 384.742188 L 232.867188 384.742188 L 232.867188 409.039062 L 170.421875 409.039062 L 170.421875 434.28125 L 244.535156 434.28125 Z M 406.957031 394.523438 L 392.765625 330.15625 L 345.773438 330.15625 L 332.527344 394.523438 L 318.964844 330.15625 L 268.503906 330.15625 L 301.304688 465.203125 L 353.027344 465.203125 L 368.480469 394.839844 L 383.933594 465.203125 L 435.65625 465.203125 L 468.457031 330.15625 L 419.570312 330.15625 Z M 461.203125 335.519531 L 431.242188 459.207031 L 388.347656 459.207031 L 371.003906 380.324219 L 365.640625 380.324219 L 348.296875 459.207031 L 305.40625 459.207031 L 275.445312 335.519531 L 314.550781 335.519531 L 330.003906 408.722656 L 335.367188 408.722656 L 350.503906 335.519531 L 388.347656 335.519531 L 404.433594 408.722656 L 409.796875 408.722656 L 424.304688 335.519531 Z M 61.617188 489.496094 L 101.039062 489.496094 L 101.039062 618.863281 L 63.824219 618.863281 L 7.371094 556.074219 L 7.371094 618.863281 L -32.050781 618.863281 L -32.050781 489.496094 L 5.480469 489.496094 L 61.933594 553.234375 L 61.933594 489.496094 Z M 173.261719 587.941406 L 247.375 587.941406 L 247.375 618.863281 L 130.054688 618.863281 L 130.054688 489.496094 L 245.796875 489.496094 L 245.796875 520.417969 L 173.261719 520.417969 L 173.261719 538.089844 L 235.707031 538.089844 L 235.707031 567.75 L 173.261719 567.75 Z M 421.78125 489.496094 L 464.671875 489.496094 L 433.132812 618.863281 L 385.828125 618.863281 L 368.480469 539.980469 L 367.851562 539.980469 L 350.503906 618.863281 L 303.195312 618.863281 L 271.976562 489.496094 L 316.757812 489.496094 L 332.210938 562.699219 L 332.84375 562.699219 L 347.980469 489.496094 L 390.242188 489.496094 L 406.328125 562.699219 L 407.273438 562.699219 Z M 421.78125 489.496094 " fill-opacity="1" fill-rule="nonzero"/></g></g></g></g></g><path fill="#2e266d" d="M 95.734375 325.601562 C 94.820312 327.1875 94.402344 328.023438 93.484375 329.777344 C 89.738281 329.691406 87.820312 329.691406 84.074219 329.691406 C 84.988281 327.941406 85.488281 327.105469 86.40625 325.601562 C 87.988281 323.097656 87.820312 321.679688 84.824219 321.929688 C 81.90625 322.179688 79.074219 323.683594 77.410156 326.101562 C 69.664062 337.457031 64.914062 351.484375 65.664062 365.34375 C 65.996094 368.683594 67.914062 370.605469 70.914062 371.023438 C 73.910156 371.523438 74.992188 370.019531 74.742188 366.597656 C 74.578125 364.511719 74.578125 363.507812 74.742188 361.335938 C 78.492188 361.589844 80.410156 361.589844 84.238281 361.503906 C 84.074219 363.675781 84.074219 364.675781 84.15625 366.765625 C 84.574219 377.035156 83.492188 381.210938 74.910156 379.457031 C 66.332031 377.703125 58.917969 371.355469 57.585938 362.339844 C 56.417969 349.648438 61.167969 336.789062 69.078125 327.019531 C 74.246094 321.011719 84.488281 316.335938 92.984375 315.082031 C 101.484375 313.914062 100.234375 317.835938 95.734375 325.601562 Z M 95.734375 325.601562 " fill-opacity="1" fill-rule="nonzero"/><path fill="#2e266d" d="M 88.820312 366.597656 C 88.90625 352.320312 93.484375 338.125 100.316406 325.6875 C 104.730469 317.921875 114.644531 314.914062 123.140625 316.082031 C 131.636719 317.253906 131.304688 320.59375 127.636719 327.523438 C 121.972656 338.878906 117.640625 351.484375 116.476562 364.175781 C 116.058594 373.027344 114.144531 376.449219 105.480469 378.035156 C 96.816406 379.625 89.15625 376.785156 88.820312 366.597656 Z M 109.480469 326.269531 C 103.066406 338.375 98.484375 352.152344 98.066406 366.011719 C 98.066406 369.269531 99.898438 370.605469 102.898438 370.1875 C 105.898438 369.855469 107.148438 368.269531 107.230469 365.179688 C 107.980469 351.902344 112.394531 338.710938 118.476562 326.9375 C 119.726562 324.515625 119.390625 323.097656 116.394531 322.761719 C 113.476562 322.597656 110.894531 323.765625 109.480469 326.269531 Z M 109.480469 326.269531 " fill-opacity="1" fill-rule="nonzero"/><path fill="#2e266d" d="M 134.636719 345.054688 C 131.636719 352.90625 128.554688 365.011719 131.71875 373.445312 C 128.222656 373.945312 126.472656 374.195312 122.972656 374.78125 C 116.308594 358.832031 127.886719 328.523438 140.300781 318.085938 C 143.964844 318.339844 145.796875 318.421875 149.460938 318.339844 C 144.628906 324.933594 145.128906 330.613281 144.382812 343.304688 C 150.878906 332.617188 155.960938 324.851562 164.621094 315.917969 C 168.039062 314.832031 169.703125 313.996094 172.953125 312.160156 C 163.457031 326.019531 155.042969 356.078125 157.707031 373.027344 C 154.210938 372.777344 152.542969 372.609375 149.046875 372.527344 C 146.796875 363.089844 150.710938 352.570312 153.128906 343.71875 C 148.546875 352.488281 142.214844 362.421875 141.132812 372.609375 C 140.632812 372.609375 140.382812 372.609375 139.800781 372.691406 C 133.300781 365.34375 133.886719 357.914062 134.636719 345.054688 Z M 134.636719 345.054688 " fill-opacity="1" fill-rule="nonzero"/><path fill="#2e266d" d="M 170.785156 374.363281 C 167.289062 373.945312 165.621094 373.695312 162.125 373.359375 C 159.707031 355.492188 167.621094 325.019531 176.617188 309.820312 C 179.449219 307.902344 180.867188 306.816406 183.613281 304.726562 C 176.699219 324.683594 168.703125 352.90625 170.785156 374.363281 Z M 170.785156 374.363281 " fill-opacity="1" fill-rule="nonzero"/><path fill="#2e266d" d="M 188.277344 337.292969 C 186.113281 350.066406 183.03125 363.089844 183.699219 376.03125 C 180.28125 375.617188 178.53125 375.363281 175.035156 374.863281 C 173.617188 354.324219 179.449219 321.175781 187.03125 302.054688 C 190.027344 299.886719 191.609375 298.882812 194.777344 297.046875 C 194.027344 309.320312 196.609375 322.011719 197.441406 334.285156 C 199.023438 320.757812 199.109375 306.816406 201.855469 293.457031 C 205.023438 292.121094 206.605469 291.453125 209.851562 290.449219 C 205.6875 318.339844 201.523438 349.566406 200.773438 377.703125 C 197.109375 377.453125 195.277344 377.285156 191.527344 376.867188 C 188.277344 364.175781 188.445312 350.484375 188.277344 337.292969 Z M 188.277344 337.292969 " fill-opacity="1" fill-rule="nonzero"/><path fill="#2e266d" d="M 239.839844 304.980469 C 240.007812 307.484375 240.007812 308.734375 240.007812 311.40625 C 236.339844 311.40625 234.507812 311.492188 230.84375 311.660156 C 230.84375 308.988281 230.84375 307.652344 230.761719 305.144531 C 230.59375 300.972656 229.179688 298.882812 226.261719 299.050781 C 223.265625 299.300781 221.679688 301.554688 221.765625 305.730469 C 222.179688 324.351562 219.097656 342.550781 215.933594 360.835938 C 215.183594 365.09375 216.433594 366.933594 219.347656 366.679688 C 222.265625 366.429688 224.097656 364.34375 224.929688 360.167969 C 226.429688 352.570312 227.34375 348.394531 228.59375 339.878906 C 226.761719 340.046875 225.847656 340.046875 223.929688 340.214844 C 224.761719 334.453125 225.179688 331.53125 225.597656 325.769531 C 231.175781 325.433594 233.925781 325.269531 239.507812 325.101562 C 238.175781 336.625 236.589844 347.8125 233.84375 359.082031 C 231.09375 371.355469 226.261719 377.035156 217.847656 377.785156 C 209.4375 378.539062 204.9375 373.695312 206.855469 361.171875 C 209.851562 343.21875 212.769531 325.269531 212.769531 306.984375 C 212.769531 294.792969 218.097656 287.945312 226.679688 287.195312 C 235.257812 286.441406 239.257812 292.539062 239.839844 304.980469 Z M 239.839844 304.980469 " fill-opacity="1" fill-rule="nonzero"/><path fill="#2e266d" d="M 247.003906 355.992188 C 247.671875 353.738281 248.003906 352.570312 248.667969 350.148438 C 252.167969 349.230469 253.835938 348.730469 257.25 347.5625 C 256.5 349.816406 256.167969 350.984375 255.417969 353.070312 C 254.167969 356.660156 254.917969 357.664062 257.582031 356.328125 C 260.25 354.992188 262.246094 352.820312 263.664062 349.398438 C 265.328125 345.308594 266.164062 343.136719 267.496094 338.542969 C 268.660156 334.703125 267.660156 333.285156 264.746094 334.203125 C 256.082031 337.039062 253.335938 330.445312 253.667969 317.503906 C 253.835938 312.328125 253.75 309.820312 253.417969 305.144531 C 252.5 293.375 256.832031 289.367188 265.328125 288.28125 C 273.824219 287.195312 278.324219 289.28125 279.488281 299.886719 C 279.738281 301.972656 279.824219 303.140625 279.90625 305.394531 C 276.574219 306.816406 274.910156 307.566406 271.410156 308.570312 C 271.328125 306.316406 271.242188 305.144531 271.078125 302.976562 C 270.742188 299.382812 269.160156 298.046875 266.246094 298.550781 C 263.332031 299.050781 261.996094 300.972656 262.332031 304.726562 C 262.746094 309.238281 262.832031 311.660156 262.664062 316.585938 C 262.582031 320.675781 263.828125 322.597656 266.746094 321.84375 C 275.574219 319.507812 279.574219 323.597656 275.824219 334.785156 C 274.324219 339.210938 273.410156 341.382812 271.660156 345.222656 C 267.160156 354.992188 261.332031 360.585938 253.917969 365.011719 C 246.503906 369.519531 243.671875 367.347656 247.003906 355.992188 Z M 247.003906 355.992188 " fill-opacity="1" fill-rule="nonzero"/><path fill="#2e266d" d="M 275.574219 342.96875 C 281.988281 327.4375 284.320312 314.832031 283.65625 298.132812 C 282.40625 287.527344 285.488281 281.015625 293.152344 277.089844 C 300.8125 273.167969 306.5625 276.089844 308.3125 286.695312 C 309.644531 303.726562 307.394531 315.164062 299.730469 330.445312 C 294.066406 339.546875 286.738281 343.972656 279.40625 348.5625 C 271.992188 352.988281 270.828125 352.570312 275.574219 342.96875 Z M 291.816406 294.042969 C 292.734375 310.90625 290.320312 323.097656 283.488281 338.460938 C 281.820312 341.632812 282.238281 342.21875 284.820312 340.796875 C 287.402344 339.378906 289.734375 337.292969 291.484375 334.203125 C 298.730469 318.921875 301.0625 307.066406 299.980469 290.117188 C 299.480469 286.609375 297.730469 285.441406 295.066406 286.777344 C 292.402344 288.113281 291.316406 290.535156 291.816406 294.042969 Z M 291.816406 294.042969 " fill-opacity="1" fill-rule="nonzero"/><path fill="#2e266d" d="M 303.894531 328.691406 C 311.808594 313.496094 314.058594 302.140625 312.558594 285.105469 C 310.644531 274.503906 312.976562 268.410156 321.390625 266.570312 C 329.800781 264.734375 336.796875 269.160156 339.382812 279.929688 C 341.878906 297.378906 339.964844 307.902344 330.96875 323.097656 C 324.386719 331.863281 315.472656 334.621094 306.894531 336.539062 C 298.316406 338.460938 298.066406 337.792969 303.894531 328.691406 Z M 321.304688 282.601562 C 323.054688 299.800781 320.890625 310.824219 312.558594 326.019531 C 310.558594 329.023438 310.894531 329.859375 313.890625 329.277344 C 316.890625 328.691406 319.640625 327.1875 321.722656 324.183594 C 330.386719 308.988281 332.382812 298.214844 330.300781 280.847656 C 329.46875 277.257812 327.46875 275.753906 324.554688 276.339844 C 321.636719 276.925781 320.640625 279.011719 321.304688 282.601562 Z M 321.304688 282.601562 " fill-opacity="1" fill-rule="nonzero"/><g clip-path="url(#8b5006f358)"><path fill="#2e266d" d="M 354.457031 302.808594 C 351.710938 315.25 343.546875 325.433594 333.21875 332.53125 C 329.71875 333.117188 327.96875 333.285156 324.472656 333.785156 C 347.128906 312.828125 349.625 292.789062 338.546875 264.566406 C 342.296875 264.484375 344.128906 264.566406 347.792969 265.320312 C 355.957031 276.007812 362.789062 288.613281 363.953125 302.308594 C 363.871094 287.613281 361.871094 281.097656 355.125 268.15625 C 358.039062 269.996094 359.289062 271.246094 361.539062 273.917969 C 376.863281 297.214844 374.449219 313.996094 350.375 328.105469 C 346.792969 329.609375 344.960938 330.195312 341.296875 331.113281 C 351.292969 324.183594 352.792969 313.828125 354.457031 302.808594 Z M 354.457031 302.808594 " fill-opacity="1" fill-rule="nonzero"/></g><path stroke-linecap="butt" transform="matrix(0.754602, 0, 0, 0.748707, 342.90865, 504.592498)" fill="none" stroke-linejoin="miter" d="M 0.00199613 0.502535 L 45.643803 0.502535 " stroke="#2e266d" stroke-width="1" stroke-opacity="1" stroke-miterlimit="4"/><g fill="#2e266d" fill-opacity="1"><g transform="translate(216.750638, 509.784465)"><g><path d="M 7.4375 0 L 2.75 -5.203125 L 2.75 0 L 1.265625 0 L 1.265625 -11.390625 L 2.75 -11.390625 L 2.75 -6.109375 L 7.453125 -11.390625 L 9.328125 -11.390625 L 4.171875 -5.6875 L 9.375 0 Z M 7.4375 0 "/></g></g></g><g fill="#2e266d" fill-opacity="1"><g transform="translate(226.534189, 509.784465)"><g><path d="M 4.953125 -9.109375 C 5.722656 -9.109375 6.398438 -8.9375 6.984375 -8.59375 C 7.566406 -8.257812 8 -7.835938 8.28125 -7.328125 L 8.28125 -8.953125 L 9.796875 -8.953125 L 9.796875 0.203125 C 9.796875 1.015625 9.617188 1.738281 9.265625 2.375 C 8.921875 3.007812 8.421875 3.503906 7.765625 3.859375 C 7.117188 4.222656 6.367188 4.40625 5.515625 4.40625 C 4.335938 4.40625 3.351562 4.128906 2.5625 3.578125 C 1.78125 3.023438 1.316406 2.269531 1.171875 1.3125 L 2.640625 1.3125 C 2.804688 1.851562 3.144531 2.289062 3.65625 2.625 C 4.164062 2.957031 4.785156 3.125 5.515625 3.125 C 6.328125 3.125 6.988281 2.863281 7.5 2.34375 C 8.019531 1.832031 8.28125 1.117188 8.28125 0.203125 L 8.28125 -1.6875 C 7.988281 -1.164062 7.550781 -0.726562 6.96875 -0.375 C 6.394531 -0.03125 5.722656 0.140625 4.953125 0.140625 C 4.160156 0.140625 3.4375 -0.0507812 2.78125 -0.4375 C 2.132812 -0.832031 1.625 -1.382812 1.25 -2.09375 C 0.882812 -2.800781 0.703125 -3.609375 0.703125 -4.515625 C 0.703125 -5.429688 0.882812 -6.234375 1.25 -6.921875 C 1.625 -7.609375 2.132812 -8.144531 2.78125 -8.53125 C 3.4375 -8.914062 4.160156 -9.109375 4.953125 -9.109375 Z M 8.28125 -4.5 C 8.28125 -5.175781 8.144531 -5.765625 7.875 -6.265625 C 7.601562 -6.765625 7.234375 -7.144531 6.765625 -7.40625 C 6.304688 -7.675781 5.800781 -7.8125 5.25 -7.8125 C 4.6875 -7.8125 4.175781 -7.679688 3.71875 -7.421875 C 3.269531 -7.160156 2.90625 -6.78125 2.625 -6.28125 C 2.351562 -5.78125 2.21875 -5.191406 2.21875 -4.515625 C 2.21875 -3.828125 2.351562 -3.226562 2.625 -2.71875 C 2.90625 -2.21875 3.269531 -1.832031 3.71875 -1.5625 C 4.175781 -1.289062 4.6875 -1.15625 5.25 -1.15625 C 5.800781 -1.15625 6.304688 -1.289062 6.765625 -1.5625 C 7.234375 -1.832031 7.601562 -2.21875 7.875 -2.71875 C 8.144531 -3.226562 8.28125 -3.820312 8.28125 -4.5 Z M 8.28125 -4.5 "/></g></g></g><g fill="#2e266d" fill-opacity="1"><g transform="translate(237.575381, 509.784465)"><g><path d="M 4.421875 0.140625 C 3.742188 0.140625 3.128906 0.0234375 2.578125 -0.203125 C 2.035156 -0.441406 1.601562 -0.769531 1.28125 -1.1875 C 0.96875 -1.601562 0.796875 -2.082031 0.765625 -2.625 L 2.296875 -2.625 C 2.347656 -2.1875 2.5625 -1.820312 2.9375 -1.53125 C 3.3125 -1.25 3.800781 -1.109375 4.40625 -1.109375 C 4.976562 -1.109375 5.425781 -1.234375 5.75 -1.484375 C 6.082031 -1.734375 6.25 -2.050781 6.25 -2.4375 C 6.25 -2.832031 6.070312 -3.125 5.71875 -3.3125 C 5.375 -3.5 4.835938 -3.6875 4.109375 -3.875 C 3.441406 -4.050781 2.894531 -4.226562 2.46875 -4.40625 C 2.050781 -4.582031 1.691406 -4.847656 1.390625 -5.203125 C 1.097656 -5.554688 0.953125 -6.023438 0.953125 -6.609375 C 0.953125 -7.066406 1.085938 -7.484375 1.359375 -7.859375 C 1.628906 -8.242188 2.015625 -8.546875 2.515625 -8.765625 C 3.015625 -8.992188 3.585938 -9.109375 4.234375 -9.109375 C 5.222656 -9.109375 6.019531 -8.851562 6.625 -8.34375 C 7.238281 -7.84375 7.566406 -7.160156 7.609375 -6.296875 L 6.125 -6.296875 C 6.09375 -6.765625 5.90625 -7.140625 5.5625 -7.421875 C 5.21875 -7.703125 4.757812 -7.84375 4.1875 -7.84375 C 3.65625 -7.84375 3.226562 -7.726562 2.90625 -7.5 C 2.59375 -7.269531 2.4375 -6.972656 2.4375 -6.609375 C 2.4375 -6.304688 2.53125 -6.0625 2.71875 -5.875 C 2.90625 -5.6875 3.144531 -5.535156 3.4375 -5.421875 C 3.726562 -5.304688 4.128906 -5.175781 4.640625 -5.03125 C 5.285156 -4.851562 5.804688 -4.679688 6.203125 -4.515625 C 6.609375 -4.347656 6.957031 -4.09375 7.25 -3.75 C 7.539062 -3.414062 7.691406 -2.976562 7.703125 -2.4375 C 7.703125 -1.945312 7.5625 -1.503906 7.28125 -1.109375 C 7.007812 -0.710938 6.625 -0.40625 6.125 -0.1875 C 5.632812 0.03125 5.066406 0.140625 4.421875 0.140625 Z M 4.421875 0.140625 "/></g></g></g><g fill="#2e266d" fill-opacity="1"><g transform="translate(246.101279, 509.784465)"><g><path d="M 1.734375 0.09375 C 1.453125 0.09375 1.210938 0 1.015625 -0.1875 C 0.816406 -0.382812 0.71875 -0.628906 0.71875 -0.921875 C 0.71875 -1.203125 0.816406 -1.4375 1.015625 -1.625 C 1.210938 -1.820312 1.453125 -1.921875 1.734375 -1.921875 C 2.003906 -1.921875 2.234375 -1.820312 2.421875 -1.625 C 2.617188 -1.4375 2.71875 -1.203125 2.71875 -0.921875 C 2.71875 -0.628906 2.617188 -0.382812 2.421875 -0.1875 C 2.234375 0 2.003906 0.09375 1.734375 0.09375 Z M 1.734375 0.09375 "/></g></g></g><g fill="#2e266d" fill-opacity="1"><g transform="translate(249.531241, 509.784465)"><g/></g></g><g fill="#2e266d" fill-opacity="1"><g transform="translate(253.89219, 509.784465)"><g><path d="M 15.578125 -11.390625 L 12.28125 0 L 10.609375 0 L 7.953125 -9.171875 L 5.21875 0 L 3.5625 0.015625 L 0.375 -11.390625 L 1.96875 -11.390625 L 4.453125 -1.734375 L 7.1875 -11.390625 L 8.859375 -11.390625 L 11.46875 -1.765625 L 13.96875 -11.390625 Z M 15.578125 -11.390625 "/></g></g></g><g fill="#2e266d" fill-opacity="1"><g transform="translate(269.833331, 509.784465)"><g><path d="M 0.703125 -4.515625 C 0.703125 -5.429688 0.882812 -6.234375 1.25 -6.921875 C 1.625 -7.609375 2.132812 -8.144531 2.78125 -8.53125 C 3.4375 -8.914062 4.160156 -9.109375 4.953125 -9.109375 C 5.734375 -9.109375 6.410156 -8.9375 6.984375 -8.59375 C 7.566406 -8.257812 8 -7.835938 8.28125 -7.328125 L 8.28125 -8.953125 L 9.796875 -8.953125 L 9.796875 0 L 8.28125 0 L 8.28125 -1.671875 C 7.988281 -1.140625 7.550781 -0.703125 6.96875 -0.359375 C 6.382812 -0.0234375 5.707031 0.140625 4.9375 0.140625 C 4.144531 0.140625 3.425781 -0.0507812 2.78125 -0.4375 C 2.132812 -0.832031 1.625 -1.382812 1.25 -2.09375 C 0.882812 -2.800781 0.703125 -3.609375 0.703125 -4.515625 Z M 8.28125 -4.5 C 8.28125 -5.175781 8.144531 -5.765625 7.875 -6.265625 C 7.601562 -6.765625 7.234375 -7.144531 6.765625 -7.40625 C 6.304688 -7.675781 5.800781 -7.8125 5.25 -7.8125 C 4.6875 -7.8125 4.175781 -7.679688 3.71875 -7.421875 C 3.269531 -7.160156 2.90625 -6.78125 2.625 -6.28125 C 2.351562 -5.78125 2.21875 -5.191406 2.21875 -4.515625 C 2.21875 -3.828125 2.351562 -3.226562 2.625 -2.71875 C 2.90625 -2.21875 3.269531 -1.832031 3.71875 -1.5625 C 4.175781 -1.289062 4.6875 -1.15625 5.25 -1.15625 C 5.800781 -1.15625 6.304688 -1.289062 6.765625 -1.5625 C 7.234375 -1.832031 7.601562 -2.21875 7.875 -2.71875 C 8.144531 -3.226562 8.28125 -3.820312 8.28125 -4.5 Z M 8.28125 -4.5 "/></g></g></g><g fill="#2e266d" fill-opacity="1"><g transform="translate(280.874523, 509.784465)"><g><path d="M 5.703125 -9.125 C 6.378906 -9.125 6.988281 -8.976562 7.53125 -8.6875 C 8.082031 -8.394531 8.507812 -7.957031 8.8125 -7.375 C 9.125 -6.800781 9.28125 -6.101562 9.28125 -5.28125 L 9.28125 0 L 7.8125 0 L 7.8125 -5.0625 C 7.8125 -5.957031 7.585938 -6.640625 7.140625 -7.109375 C 6.691406 -7.585938 6.082031 -7.828125 5.3125 -7.828125 C 4.53125 -7.828125 3.90625 -7.582031 3.4375 -7.09375 C 2.976562 -6.601562 2.75 -5.890625 2.75 -4.953125 L 2.75 0 L 1.265625 0 L 1.265625 -12.09375 L 2.75 -12.09375 L 2.75 -7.6875 C 3.039062 -8.144531 3.441406 -8.5 3.953125 -8.75 C 4.472656 -9 5.054688 -9.125 5.703125 -9.125 Z M 5.703125 -9.125 "/></g></g></g><g fill="#2e266d" fill-opacity="1"><g transform="translate(291.327729, 509.784465)"><g><path d="M 8.96875 -8.953125 L 3.578125 4.21875 L 2.046875 4.21875 L 3.8125 -0.09375 L 0.203125 -8.953125 L 1.84375 -8.953125 L 4.65625 -1.703125 L 7.4375 -8.953125 Z M 8.96875 -8.953125 "/></g></g></g><g fill="#2e266d" fill-opacity="1"><g transform="translate(300.52328, 509.784465)"><g><path d="M 9.203125 -8.953125 L 9.203125 0 L 7.71875 0 L 7.71875 -1.328125 C 7.4375 -0.867188 7.039062 -0.507812 6.53125 -0.25 C 6.019531 0 5.460938 0.125 4.859375 0.125 C 4.160156 0.125 3.53125 -0.015625 2.96875 -0.296875 C 2.414062 -0.585938 1.976562 -1.019531 1.65625 -1.59375 C 1.332031 -2.175781 1.171875 -2.878906 1.171875 -3.703125 L 1.171875 -8.953125 L 2.640625 -8.953125 L 2.640625 -3.90625 C 2.640625 -3.019531 2.863281 -2.335938 3.3125 -1.859375 C 3.757812 -1.390625 4.367188 -1.15625 5.140625 -1.15625 C 5.941406 -1.15625 6.570312 -1.398438 7.03125 -1.890625 C 7.488281 -2.378906 7.71875 -3.09375 7.71875 -4.03125 L 7.71875 -8.953125 Z M 9.203125 -8.953125 "/></g></g></g><g fill="#2e266d" fill-opacity="1"><g transform="translate(310.976485, 509.784465)"><g/></g></g><g fill="#2e266d" fill-opacity="1"><g transform="translate(315.337434, 509.784465)"><g><path d="M 10.03125 -11.390625 L 10.03125 0 L 8.546875 0 L 8.546875 -5.171875 L 2.75 -5.171875 L 2.75 0 L 1.265625 0 L 1.265625 -11.390625 L 2.75 -11.390625 L 2.75 -6.390625 L 8.546875 -6.390625 L 8.546875 -11.390625 Z M 10.03125 -11.390625 "/></g></g></g></svg>