<svg xmlns="http://www.w3.org/2000/svg" xmlns:xlink="http://www.w3.org/1999/xlink" width="873" zoomAndPan="magnify" viewBox="0 0 654.75 663.74998" height="885" preserveAspectRatio="xMidYMid meet" version="1.0"><defs><filter x="0%" y="0%" width="100%" height="100%" id="d3f7959e56"><feColorMatrix values="0 0 0 0 1 0 0 0 0 1 0 0 0 0 1 0 0 0 1 0" color-interpolation-filters="sRGB"/></filter><g/><clipPath id="cfff125a04"><path d="M 0 0 L 654.5 0 L 654.5 663.5 L 0 663.5 Z M 0 0 " clip-rule="nonzero"/></clipPath><clipPath id="0e24570d20"><path d="M 33 0 L 624 0 L 624 663.5 L 33 663.5 Z M 33 0 " clip-rule="nonzero"/></clipPath><mask id="a55d9ced89"><g filter="url(#d3f7959e56)"><rect x="-65.475" width="785.7" fill="#000000" y="-66.374998" height="796.499976" fill-opacity="0.0392"/></g></mask><clipPath id="11388c4eb3"><path d="M 0.347656 0 L 589 0 L 589 663.5 L 0.347656 663.5 Z M 0.347656 0 " clip-rule="nonzero"/></clipPath><clipPath id="95aa2a60d2"><rect x="0" width="591" y="0" height="664"/></clipPath><clipPath id="7b260a7990"><path d="M 490 243.816406 L 562 243.816406 L 562 349 L 490 349 Z M 490 243.816406 " clip-rule="nonzero"/></clipPath></defs><g clip-path="url(#cfff125a04)"><path fill="#ffffff" d="M 0 0 L 654.75 0 L 654.75 671.25 L 0 671.25 Z M 0 0 " fill-opacity="1" fill-rule="nonzero"/><path fill="#ffffff" d="M 0 0 L 654.75 0 L 654.75 663.75 L 0 663.75 Z M 0 0 " fill-opacity="1" fill-rule="nonzero"/><path fill="#f4f6fc" d="M 0 0 L 654.75 0 L 654.75 663.75 L 0 663.75 Z M 0 0 " fill-opacity="1" fill-rule="nonzero"/></g><g clip-path="url(#0e24570d20)"><g mask="url(#a55d9ced89)"><g transform="matrix(1, 0, 0, 1, 33, 0.000000000000003819)"><g clip-path="url(#95aa2a60d2)"><g clip-path="url(#11388c4eb3)"><path fill="#233dff" d="M 110.273438 39.800781 L 49.117188 -29.039062 L 0.484375 -29.039062 L 0.484375 128.515625 L 53.167969 128.515625 L 53.167969 60.414062 L 114.328125 128.515625 L 162.589844 128.515625 L 162.589844 -29.039062 L 110.273438 -29.039062 Z M 116.539062 -22.410156 L 155.960938 -22.410156 L 155.960938 121.886719 L 116.90625 121.886719 L 46.535156 43.480469 L 46.535156 121.886719 L 7.113281 121.886719 L 7.113281 -22.410156 L 46.167969 -22.410156 L 116.539062 57.101562 Z M 246.59375 69.25 L 319.539062 69.25 L 319.539062 28.019531 L 246.59375 28.019531 L 246.59375 13.664062 L 331.699219 13.664062 L 331.699219 -29.039062 L 189.855469 -29.039062 L 189.855469 128.515625 L 333.171875 128.515625 L 333.171875 85.445312 L 246.59375 85.445312 Z M 326.910156 92.070312 L 326.910156 121.886719 L 196.484375 121.886719 L 196.484375 -22.410156 L 325.433594 -22.410156 L 325.433594 7.40625 L 240.328125 7.40625 L 240.328125 34.644531 L 313.277344 34.644531 L 313.277344 62.988281 L 240.328125 62.988281 L 240.328125 92.4375 L 326.910156 92.4375 Z M 453.648438 128.515625 L 471.699219 46.425781 L 489.753906 128.515625 L 550.175781 128.515625 L 588.492188 -29.039062 L 531.386719 -29.039062 L 516.648438 46.058594 L 500.070312 -29.039062 L 445.171875 -29.039062 L 429.699219 46.058594 L 413.859375 -29.039062 L 354.910156 -29.039062 L 393.226562 128.515625 Z M 408.699219 -22.410156 L 426.753906 62.988281 L 433.015625 62.988281 L 450.699219 -22.410156 L 494.910156 -22.410156 L 513.699219 62.988281 L 519.964844 62.988281 L 536.910156 -22.410156 L 580.019531 -22.410156 L 545.015625 121.886719 L 494.910156 121.886719 L 474.648438 29.859375 L 468.382812 29.859375 L 448.121094 121.886719 L 398.015625 121.886719 L 363.015625 -22.410156 Z M 110.273438 232.320312 L 49.117188 163.117188 L 0.484375 163.117188 L 0.484375 320.667969 L 53.167969 320.667969 L 53.167969 252.566406 L 114.328125 320.667969 L 162.589844 320.667969 L 162.589844 163.117188 L 110.273438 163.117188 Z M 116.539062 169.742188 L 155.960938 169.742188 L 155.960938 314.042969 L 116.90625 314.042969 L 46.535156 235.636719 L 46.535156 314.042969 L 7.113281 314.042969 L 7.113281 169.742188 L 46.167969 169.742188 L 116.539062 249.253906 Z M 246.59375 261.402344 L 319.539062 261.402344 L 319.539062 220.175781 L 246.59375 220.175781 L 246.59375 205.816406 L 331.699219 205.816406 L 331.699219 163.117188 L 189.855469 163.117188 L 189.855469 320.667969 L 333.171875 320.667969 L 333.171875 277.96875 L 246.59375 277.96875 Z M 326.910156 284.226562 L 326.910156 314.042969 L 196.484375 314.042969 L 196.484375 169.742188 L 325.433594 169.742188 L 325.433594 199.558594 L 240.328125 199.558594 L 240.328125 226.800781 L 313.277344 226.800781 L 313.277344 255.144531 L 240.328125 255.144531 L 240.328125 284.59375 L 326.910156 284.59375 Z M 516.648438 238.578125 L 500.070312 163.484375 L 445.171875 163.484375 L 429.699219 238.578125 L 413.859375 163.484375 L 354.910156 163.484375 L 392.855469 320.667969 L 453.648438 320.667969 L 471.699219 238.578125 L 489.753906 320.667969 L 550.175781 320.667969 L 588.492188 163.117188 L 531.386719 163.117188 Z M 580.019531 169.742188 L 545.015625 314.042969 L 494.910156 314.042969 L 474.648438 222.015625 L 468.382812 222.015625 L 448.121094 314.042969 L 398.015625 314.042969 L 363.015625 169.742188 L 408.699219 169.742188 L 426.753906 255.144531 L 433.015625 255.144531 L 450.699219 169.742188 L 494.910156 169.742188 L 513.699219 255.144531 L 519.964844 255.144531 L 536.910156 169.742188 Z M 110.273438 424.476562 L 49.117188 355.640625 L 0.484375 355.640625 L 0.484375 513.191406 L 53.167969 513.191406 L 53.167969 445.089844 L 114.328125 513.191406 L 162.589844 513.191406 L 162.589844 355.640625 L 110.273438 355.640625 Z M 116.539062 361.898438 L 155.960938 361.898438 L 155.960938 506.199219 L 116.90625 506.199219 L 46.535156 427.789062 L 46.535156 506.199219 L 7.113281 506.199219 L 7.113281 361.898438 L 46.167969 361.898438 L 116.539062 441.410156 Z M 246.59375 453.558594 L 319.539062 453.558594 L 319.539062 412.328125 L 246.59375 412.328125 L 246.59375 397.972656 L 331.699219 397.972656 L 331.699219 355.269531 L 189.855469 355.269531 L 189.855469 512.824219 L 333.171875 512.824219 L 333.171875 470.121094 L 246.59375 470.121094 Z M 326.910156 476.75 L 326.910156 506.566406 L 196.484375 506.566406 L 196.484375 362.265625 L 325.433594 362.265625 L 325.433594 392.082031 L 240.328125 392.082031 L 240.328125 419.324219 L 313.277344 419.324219 L 313.277344 447.667969 L 240.328125 447.667969 L 240.328125 477.117188 L 326.910156 477.117188 Z M 516.648438 430.734375 L 500.070312 355.640625 L 445.171875 355.640625 L 429.699219 430.734375 L 413.859375 355.640625 L 354.910156 355.640625 L 393.226562 513.191406 L 453.648438 513.191406 L 471.699219 431.101562 L 489.753906 513.191406 L 550.175781 513.191406 L 588.492188 355.640625 L 531.386719 355.640625 Z M 580.019531 361.898438 L 545.015625 506.199219 L 494.910156 506.199219 L 474.648438 414.167969 L 468.382812 414.167969 L 448.121094 506.199219 L 398.015625 506.199219 L 363.015625 361.898438 L 408.699219 361.898438 L 426.753906 447.300781 L 433.015625 447.300781 L 450.699219 361.898438 L 494.910156 361.898438 L 513.699219 447.300781 L 519.964844 447.300781 L 536.910156 361.898438 Z M 113.222656 541.535156 L 159.273438 541.535156 L 159.273438 692.460938 L 115.800781 692.460938 L 49.851562 619.207031 L 49.851562 692.460938 L 3.800781 692.460938 L 3.800781 541.535156 L 47.640625 541.535156 L 113.589844 615.894531 L 113.589844 541.535156 Z M 243.644531 656.386719 L 330.226562 656.386719 L 330.226562 692.460938 L 193.171875 692.460938 L 193.171875 541.535156 L 328.382812 541.535156 L 328.382812 577.609375 L 243.644531 577.609375 L 243.644531 598.226562 L 316.59375 598.226562 L 316.59375 632.828125 L 243.644531 632.828125 Z M 533.964844 541.535156 L 584.070312 541.535156 L 547.226562 692.460938 L 491.964844 692.460938 L 471.699219 600.433594 L 470.964844 600.433594 L 450.699219 692.460938 L 395.4375 692.460938 L 358.960938 541.535156 L 411.277344 541.535156 L 429.332031 626.9375 L 430.066406 626.9375 L 447.753906 541.535156 L 497.121094 541.535156 L 515.910156 626.9375 L 517.015625 626.9375 Z M 533.964844 541.535156 " fill-opacity="1" fill-rule="nonzero"/></g></g></g></g></g><path fill="#2e266d" d="M 144.65625 336.101562 C 143.273438 338.496094 142.644531 339.753906 141.257812 342.398438 C 135.589844 342.273438 132.695312 342.273438 127.027344 342.273438 C 128.410156 339.628906 129.167969 338.367188 130.550781 336.101562 C 132.945312 332.320312 132.695312 330.179688 128.160156 330.558594 C 123.75 330.933594 119.46875 333.203125 116.949219 336.855469 C 105.238281 353.992188 98.058594 375.160156 99.191406 396.074219 C 99.695312 401.113281 102.59375 404.011719 107.128906 404.640625 C 111.660156 405.398438 113.296875 403.128906 112.921875 397.964844 C 112.667969 394.8125 112.667969 393.300781 112.921875 390.027344 C 118.585938 390.402344 121.484375 390.402344 127.277344 390.277344 C 127.027344 393.554688 127.027344 395.066406 127.152344 398.214844 C 127.78125 413.714844 126.144531 420.011719 113.171875 417.367188 C 100.199219 414.722656 88.992188 405.144531 86.976562 391.539062 C 85.214844 372.386719 92.390625 352.984375 104.355469 338.242188 C 112.164062 329.171875 127.65625 322.117188 140.5 320.226562 C 153.347656 318.460938 151.457031 324.382812 144.65625 336.101562 Z M 144.65625 336.101562 " fill-opacity="1" fill-rule="nonzero"/><path fill="#2e266d" d="M 134.203125 397.964844 C 134.332031 376.417969 141.257812 355 151.585938 336.226562 C 158.257812 324.507812 173.246094 319.972656 186.09375 321.738281 C 198.9375 323.5 198.433594 328.539062 192.894531 339 C 184.328125 356.132812 177.78125 375.160156 176.015625 394.308594 C 175.386719 407.664062 172.492188 412.832031 159.394531 415.226562 C 146.296875 417.617188 134.707031 413.335938 134.203125 397.964844 Z M 165.4375 337.109375 C 155.742188 355.378906 148.8125 376.167969 148.183594 397.082031 C 148.183594 401.996094 150.953125 404.011719 155.488281 403.382812 C 160.023438 402.878906 161.910156 400.484375 162.039062 395.820312 C 163.171875 375.789062 169.847656 355.882812 179.039062 338.117188 C 180.929688 334.460938 180.425781 332.320312 175.890625 331.816406 C 171.484375 331.566406 167.578125 333.328125 165.4375 337.109375 Z M 165.4375 337.109375 " fill-opacity="1" fill-rule="nonzero"/><path fill="#2e266d" d="M 203.472656 365.457031 C 198.9375 377.300781 194.277344 395.570312 199.066406 408.296875 C 193.773438 409.050781 191.128906 409.429688 185.839844 410.3125 C 175.765625 386.246094 193.273438 340.511719 212.035156 324.761719 C 217.578125 325.140625 220.347656 325.265625 225.890625 325.140625 C 218.585938 335.09375 219.339844 343.660156 218.207031 362.8125 C 228.03125 346.683594 235.714844 334.964844 248.8125 321.484375 C 253.976562 319.847656 256.496094 318.585938 261.40625 315.816406 C 247.050781 336.730469 234.328125 382.089844 238.359375 407.664062 C 233.070312 407.289062 230.550781 407.035156 225.261719 406.910156 C 221.859375 392.671875 227.78125 376.796875 231.433594 363.441406 C 224.503906 376.671875 214.933594 391.664062 213.296875 407.035156 C 212.539062 407.035156 212.164062 407.035156 211.28125 407.160156 C 201.457031 396.074219 202.339844 384.859375 203.472656 365.457031 Z M 203.472656 365.457031 " fill-opacity="1" fill-rule="nonzero"/><path fill="#2e266d" d="M 258.132812 409.679688 C 252.84375 409.050781 250.324219 408.671875 245.035156 408.167969 C 241.382812 381.207031 253.347656 335.21875 266.949219 312.289062 C 271.230469 309.390625 273.371094 307.753906 277.527344 304.601562 C 267.074219 334.714844 254.984375 377.300781 258.132812 409.679688 Z M 258.132812 409.679688 " fill-opacity="1" fill-rule="nonzero"/><path fill="#2e266d" d="M 284.578125 353.738281 C 281.304688 373.015625 276.644531 392.671875 277.652344 412.199219 C 272.488281 411.570312 269.84375 411.191406 264.554688 410.4375 C 262.414062 379.441406 271.230469 329.421875 282.691406 300.570312 C 287.222656 297.292969 289.617188 295.78125 294.402344 293.011719 C 293.269531 311.53125 297.175781 330.683594 298.433594 349.203125 C 300.828125 328.792969 300.953125 307.753906 305.109375 287.59375 C 309.894531 285.578125 312.285156 284.570312 317.199219 283.058594 C 310.902344 325.140625 304.605469 372.261719 303.472656 414.722656 C 297.929688 414.34375 295.160156 414.089844 289.492188 413.460938 C 284.578125 394.308594 284.832031 373.648438 284.578125 353.738281 Z M 284.578125 353.738281 " fill-opacity="1" fill-rule="nonzero"/><path fill="#2e266d" d="M 362.539062 304.980469 C 362.789062 308.761719 362.789062 310.648438 362.789062 314.679688 C 357.25 314.679688 354.476562 314.808594 348.9375 315.058594 C 348.9375 311.027344 348.9375 309.011719 348.808594 305.230469 C 348.558594 298.933594 346.417969 295.78125 342.007812 296.035156 C 337.476562 296.414062 335.082031 299.8125 335.207031 306.113281 C 335.839844 334.210938 331.179688 361.675781 326.394531 389.269531 C 325.257812 395.695312 327.148438 398.46875 331.554688 398.089844 C 335.964844 397.710938 338.734375 394.5625 339.996094 388.261719 C 342.261719 376.796875 343.648438 370.496094 345.535156 357.644531 C 342.765625 357.898438 341.378906 357.898438 338.484375 358.148438 C 339.742188 349.457031 340.371094 345.046875 341 336.351562 C 349.441406 335.847656 353.597656 335.597656 362.035156 335.34375 C 360.019531 352.730469 357.625 369.613281 353.46875 386.625 C 349.3125 405.144531 342.007812 413.714844 329.289062 414.847656 C 316.570312 415.980469 309.769531 408.671875 312.664062 389.773438 C 317.199219 362.683594 321.605469 335.597656 321.605469 308.003906 C 321.605469 289.609375 329.667969 279.277344 342.640625 278.144531 C 355.609375 277.007812 361.65625 286.207031 362.539062 304.980469 Z M 362.539062 304.980469 " fill-opacity="1" fill-rule="nonzero"/><path fill="#2e266d" d="M 373.367188 381.960938 C 374.375 378.5625 374.878906 376.796875 375.886719 373.144531 C 381.175781 371.757812 383.695312 371 388.859375 369.238281 C 387.726562 372.640625 387.222656 374.402344 386.089844 377.550781 C 384.199219 382.96875 385.332031 384.480469 389.363281 382.464844 C 393.394531 380.449219 396.417969 377.175781 398.558594 372.007812 C 401.078125 365.835938 402.335938 362.558594 404.351562 355.628906 C 406.113281 349.832031 404.601562 347.691406 400.195312 349.078125 C 387.097656 353.363281 382.941406 343.410156 383.445312 323.878906 C 383.695312 316.066406 383.570312 312.289062 383.066406 305.230469 C 381.679688 287.46875 388.230469 281.417969 401.078125 279.78125 C 413.921875 278.144531 420.722656 281.292969 422.488281 297.292969 C 422.863281 300.445312 422.992188 302.207031 423.117188 305.609375 C 418.078125 307.753906 415.558594 308.886719 410.269531 310.398438 C 410.144531 306.996094 410.019531 305.230469 409.765625 301.957031 C 409.261719 296.539062 406.871094 294.523438 402.460938 295.277344 C 398.054688 296.035156 396.039062 298.933594 396.542969 304.601562 C 397.171875 311.40625 397.296875 315.058594 397.046875 322.492188 C 396.921875 328.667969 398.808594 331.566406 403.21875 330.429688 C 416.566406 326.902344 422.613281 333.078125 416.945312 349.960938 C 414.679688 356.636719 413.292969 359.914062 410.648438 365.710938 C 403.847656 380.449219 395.03125 388.890625 383.824219 395.570312 C 372.613281 402.375 368.332031 399.097656 373.367188 381.960938 Z M 373.367188 381.960938 " fill-opacity="1" fill-rule="nonzero"/><path fill="#2e266d" d="M 416.566406 362.308594 C 426.265625 338.871094 429.792969 319.847656 428.785156 294.648438 C 426.894531 278.648438 431.554688 268.820312 443.140625 262.898438 C 454.726562 256.976562 463.417969 261.386719 466.0625 277.386719 C 468.078125 303.089844 464.675781 320.351562 453.089844 343.410156 C 444.527344 357.140625 433.445312 363.820312 422.359375 370.75 C 411.152344 377.425781 409.386719 376.796875 416.566406 362.308594 Z M 441.125 288.476562 C 442.511719 313.925781 438.859375 332.320312 428.53125 355.503906 C 426.011719 360.292969 426.644531 361.171875 430.546875 359.03125 C 434.449219 356.890625 437.976562 353.738281 440.621094 349.078125 C 451.578125 326.019531 455.105469 308.128906 453.46875 282.554688 C 452.710938 277.261719 450.066406 275.496094 446.039062 277.511719 C 442.007812 279.527344 440.371094 283.183594 441.125 288.476562 Z M 441.125 288.476562 " fill-opacity="1" fill-rule="nonzero"/><path fill="#2e266d" d="M 459.386719 340.761719 C 471.351562 317.832031 474.753906 300.695312 472.484375 274.992188 C 469.589844 258.992188 473.117188 249.792969 485.835938 247.023438 C 498.554688 244.25 509.136719 250.929688 513.039062 267.183594 C 516.816406 293.515625 513.921875 309.390625 500.320312 332.320312 C 490.371094 345.550781 476.894531 349.707031 463.921875 352.605469 C 450.949219 355.503906 450.570312 354.496094 459.386719 340.761719 Z M 485.710938 271.214844 C 488.355469 297.167969 485.078125 313.800781 472.484375 336.730469 C 469.464844 341.265625 469.964844 342.527344 474.5 341.644531 C 479.035156 340.761719 483.191406 338.496094 486.339844 333.957031 C 499.4375 311.027344 502.460938 294.773438 499.3125 268.566406 C 498.050781 263.148438 495.027344 260.882812 490.621094 261.765625 C 486.214844 262.644531 484.703125 265.796875 485.710938 271.214844 Z M 485.710938 271.214844 " fill-opacity="1" fill-rule="nonzero"/><g clip-path="url(#7b260a7990)"><path fill="#2e266d" d="M 535.835938 301.703125 C 531.679688 320.476562 519.335938 335.847656 503.71875 346.558594 C 498.429688 347.441406 495.785156 347.691406 490.496094 348.449219 C 524.75 316.824219 528.53125 286.585938 511.78125 244 C 517.445312 243.871094 520.21875 244 525.757812 245.132812 C 538.101562 261.261719 548.429688 280.285156 550.191406 300.949219 C 550.066406 278.773438 547.042969 268.945312 536.84375 249.417969 C 541.25 252.1875 543.140625 254.078125 546.539062 258.109375 C 569.714844 293.261719 566.0625 318.585938 529.664062 339.878906 C 524.246094 342.148438 521.476562 343.03125 515.9375 344.417969 C 531.046875 333.957031 533.316406 318.335938 535.835938 301.703125 Z M 535.835938 301.703125 " fill-opacity="1" fill-rule="nonzero"/></g><path stroke-linecap="butt" transform="matrix(0.752044, 0, 0, 0.75, 453.389666, 522.842044)" fill="none" stroke-linejoin="miter" d="M 0.00127581 1.002275 L 68.818976 1.002275 " stroke="#2e266d" stroke-width="2" stroke-opacity="1" stroke-miterlimit="4"/><g fill="#2e266d" fill-opacity="1"><g transform="translate(356.581646, 527.21655)"><g><path d="M 6.453125 0 L 2.375 -4.5 L 2.375 0 L 1.09375 0 L 1.09375 -9.875 L 2.375 -9.875 L 2.375 -5.296875 L 6.46875 -9.875 L 8.09375 -9.875 L 3.609375 -4.9375 L 8.140625 0 Z M 6.453125 0 "/></g></g></g><g fill="#2e266d" fill-opacity="1"><g transform="translate(365.061191, 527.21655)"><g><path d="M 4.296875 -7.890625 C 4.960938 -7.890625 5.546875 -7.742188 6.046875 -7.453125 C 6.554688 -7.160156 6.9375 -6.789062 7.1875 -6.34375 L 7.1875 -7.765625 L 8.484375 -7.765625 L 8.484375 0.171875 C 8.484375 0.878906 8.332031 1.507812 8.03125 2.0625 C 7.726562 2.613281 7.296875 3.046875 6.734375 3.359375 C 6.171875 3.671875 5.519531 3.828125 4.78125 3.828125 C 3.757812 3.828125 2.90625 3.582031 2.21875 3.09375 C 1.539062 2.613281 1.140625 1.960938 1.015625 1.140625 L 2.296875 1.140625 C 2.441406 1.609375 2.734375 1.984375 3.171875 2.265625 C 3.617188 2.554688 4.15625 2.703125 4.78125 2.703125 C 5.488281 2.703125 6.066406 2.476562 6.515625 2.03125 C 6.960938 1.59375 7.1875 0.972656 7.1875 0.171875 L 7.1875 -1.453125 C 6.925781 -1.003906 6.546875 -0.628906 6.046875 -0.328125 C 5.546875 -0.0234375 4.960938 0.125 4.296875 0.125 C 3.609375 0.125 2.984375 -0.0390625 2.421875 -0.375 C 1.859375 -0.71875 1.414062 -1.195312 1.09375 -1.8125 C 0.769531 -2.425781 0.609375 -3.125 0.609375 -3.90625 C 0.609375 -4.707031 0.769531 -5.40625 1.09375 -6 C 1.414062 -6.601562 1.859375 -7.066406 2.421875 -7.390625 C 2.984375 -7.722656 3.609375 -7.890625 4.296875 -7.890625 Z M 7.1875 -3.890625 C 7.1875 -4.484375 7.066406 -4.992188 6.828125 -5.421875 C 6.585938 -5.859375 6.265625 -6.191406 5.859375 -6.421875 C 5.460938 -6.660156 5.023438 -6.78125 4.546875 -6.78125 C 4.066406 -6.78125 3.628906 -6.664062 3.234375 -6.4375 C 2.835938 -6.207031 2.519531 -5.875 2.28125 -5.4375 C 2.039062 -5.007812 1.921875 -4.5 1.921875 -3.90625 C 1.921875 -3.3125 2.039062 -2.796875 2.28125 -2.359375 C 2.519531 -1.921875 2.835938 -1.582031 3.234375 -1.34375 C 3.628906 -1.113281 4.066406 -1 4.546875 -1 C 5.023438 -1 5.460938 -1.113281 5.859375 -1.34375 C 6.265625 -1.582031 6.585938 -1.921875 6.828125 -2.359375 C 7.066406 -2.796875 7.1875 -3.304688 7.1875 -3.890625 Z M 7.1875 -3.890625 "/></g></g></g><g fill="#2e266d" fill-opacity="1"><g transform="translate(374.630751, 527.21655)"><g><path d="M 3.84375 0.125 C 3.25 0.125 2.710938 0.0234375 2.234375 -0.171875 C 1.765625 -0.378906 1.390625 -0.664062 1.109375 -1.03125 C 0.835938 -1.394531 0.691406 -1.8125 0.671875 -2.28125 L 2 -2.28125 C 2.039062 -1.894531 2.222656 -1.578125 2.546875 -1.328125 C 2.867188 -1.085938 3.296875 -0.96875 3.828125 -0.96875 C 4.316406 -0.96875 4.703125 -1.070312 4.984375 -1.28125 C 5.265625 -1.5 5.40625 -1.773438 5.40625 -2.109375 C 5.40625 -2.453125 5.253906 -2.707031 4.953125 -2.875 C 4.648438 -3.039062 4.1875 -3.203125 3.5625 -3.359375 C 2.976562 -3.503906 2.503906 -3.65625 2.140625 -3.8125 C 1.773438 -3.96875 1.460938 -4.195312 1.203125 -4.5 C 0.953125 -4.8125 0.828125 -5.21875 0.828125 -5.71875 C 0.828125 -6.125 0.941406 -6.488281 1.171875 -6.8125 C 1.410156 -7.144531 1.742188 -7.40625 2.171875 -7.59375 C 2.609375 -7.789062 3.109375 -7.890625 3.671875 -7.890625 C 4.523438 -7.890625 5.21875 -7.671875 5.75 -7.234375 C 6.28125 -6.804688 6.566406 -6.210938 6.609375 -5.453125 L 5.3125 -5.453125 C 5.28125 -5.859375 5.113281 -6.179688 4.8125 -6.421875 C 4.519531 -6.671875 4.125 -6.796875 3.625 -6.796875 C 3.164062 -6.796875 2.796875 -6.695312 2.515625 -6.5 C 2.242188 -6.300781 2.109375 -6.039062 2.109375 -5.71875 C 2.109375 -5.46875 2.191406 -5.257812 2.359375 -5.09375 C 2.523438 -4.925781 2.734375 -4.789062 2.984375 -4.6875 C 3.234375 -4.59375 3.582031 -4.484375 4.03125 -4.359375 C 4.582031 -4.210938 5.03125 -4.066406 5.375 -3.921875 C 5.726562 -3.773438 6.03125 -3.550781 6.28125 -3.25 C 6.53125 -2.957031 6.660156 -2.578125 6.671875 -2.109375 C 6.671875 -1.679688 6.550781 -1.296875 6.3125 -0.953125 C 6.082031 -0.617188 5.75 -0.351562 5.3125 -0.15625 C 4.882812 0.03125 4.394531 0.125 3.84375 0.125 Z M 3.84375 0.125 "/></g></g></g><g fill="#2e266d" fill-opacity="1"><g transform="translate(382.020269, 527.21655)"><g><path d="M 1.5 0.078125 C 1.257812 0.078125 1.050781 -0.00390625 0.875 -0.171875 C 0.707031 -0.335938 0.625 -0.546875 0.625 -0.796875 C 0.625 -1.035156 0.707031 -1.238281 0.875 -1.40625 C 1.050781 -1.582031 1.257812 -1.671875 1.5 -1.671875 C 1.738281 -1.671875 1.941406 -1.582031 2.109375 -1.40625 C 2.273438 -1.238281 2.359375 -1.035156 2.359375 -0.796875 C 2.359375 -0.546875 2.273438 -0.335938 2.109375 -0.171875 C 1.941406 -0.00390625 1.738281 0.078125 1.5 0.078125 Z M 1.5 0.078125 "/></g></g></g><g fill="#2e266d" fill-opacity="1"><g transform="translate(384.993066, 527.21655)"><g/></g></g><g fill="#2e266d" fill-opacity="1"><g transform="translate(388.772763, 527.21655)"><g><path d="M 13.5 -9.875 L 10.640625 0 L 9.203125 0 L 6.90625 -7.953125 L 4.515625 0 L 3.09375 0.015625 L 0.328125 -9.875 L 1.703125 -9.875 L 3.859375 -1.5 L 6.234375 -9.875 L 7.6875 -9.875 L 9.953125 -1.53125 L 12.109375 -9.875 Z M 13.5 -9.875 "/></g></g></g><g fill="#2e266d" fill-opacity="1"><g transform="translate(402.589179, 527.21655)"><g><path d="M 0.609375 -3.90625 C 0.609375 -4.707031 0.769531 -5.40625 1.09375 -6 C 1.414062 -6.601562 1.859375 -7.066406 2.421875 -7.390625 C 2.984375 -7.722656 3.609375 -7.890625 4.296875 -7.890625 C 4.972656 -7.890625 5.5625 -7.742188 6.0625 -7.453125 C 6.5625 -7.160156 6.9375 -6.789062 7.1875 -6.34375 L 7.1875 -7.765625 L 8.484375 -7.765625 L 8.484375 0 L 7.1875 0 L 7.1875 -1.453125 C 6.925781 -0.992188 6.539062 -0.613281 6.03125 -0.3125 C 5.53125 -0.0195312 4.945312 0.125 4.28125 0.125 C 3.59375 0.125 2.96875 -0.0390625 2.40625 -0.375 C 1.851562 -0.71875 1.414062 -1.195312 1.09375 -1.8125 C 0.769531 -2.425781 0.609375 -3.125 0.609375 -3.90625 Z M 7.1875 -3.890625 C 7.1875 -4.484375 7.066406 -4.992188 6.828125 -5.421875 C 6.585938 -5.859375 6.265625 -6.191406 5.859375 -6.421875 C 5.460938 -6.660156 5.023438 -6.78125 4.546875 -6.78125 C 4.066406 -6.78125 3.628906 -6.664062 3.234375 -6.4375 C 2.835938 -6.207031 2.519531 -5.875 2.28125 -5.4375 C 2.039062 -5.007812 1.921875 -4.5 1.921875 -3.90625 C 1.921875 -3.3125 2.039062 -2.796875 2.28125 -2.359375 C 2.519531 -1.921875 2.835938 -1.582031 3.234375 -1.34375 C 3.628906 -1.113281 4.066406 -1 4.546875 -1 C 5.023438 -1 5.460938 -1.113281 5.859375 -1.34375 C 6.265625 -1.582031 6.585938 -1.921875 6.828125 -2.359375 C 7.066406 -2.796875 7.1875 -3.304688 7.1875 -3.890625 Z M 7.1875 -3.890625 "/></g></g></g><g fill="#2e266d" fill-opacity="1"><g transform="translate(412.158739, 527.21655)"><g><path d="M 4.953125 -7.90625 C 5.535156 -7.90625 6.0625 -7.78125 6.53125 -7.53125 C 7 -7.28125 7.367188 -6.90625 7.640625 -6.40625 C 7.910156 -5.90625 8.046875 -5.296875 8.046875 -4.578125 L 8.046875 0 L 6.78125 0 L 6.78125 -4.390625 C 6.78125 -5.171875 6.582031 -5.765625 6.1875 -6.171875 C 5.800781 -6.578125 5.273438 -6.78125 4.609375 -6.78125 C 3.921875 -6.78125 3.375 -6.566406 2.96875 -6.140625 C 2.570312 -5.722656 2.375 -5.109375 2.375 -4.296875 L 2.375 0 L 1.09375 0 L 1.09375 -10.484375 L 2.375 -10.484375 L 2.375 -6.65625 C 2.632812 -7.050781 2.988281 -7.359375 3.4375 -7.578125 C 3.882812 -7.796875 4.390625 -7.90625 4.953125 -7.90625 Z M 4.953125 -7.90625 "/></g></g></g><g fill="#2e266d" fill-opacity="1"><g transform="translate(421.218682, 527.21655)"><g><path d="M 7.78125 -7.765625 L 3.109375 3.65625 L 1.765625 3.65625 L 3.296875 -0.078125 L 0.171875 -7.765625 L 1.59375 -7.765625 L 4.03125 -1.46875 L 6.453125 -7.765625 Z M 7.78125 -7.765625 "/></g></g></g><g fill="#2e266d" fill-opacity="1"><g transform="translate(429.188599, 527.21655)"><g><path d="M 7.984375 -7.765625 L 7.984375 0 L 6.6875 0 L 6.6875 -1.140625 C 6.445312 -0.742188 6.101562 -0.4375 5.65625 -0.21875 C 5.21875 0 4.734375 0.109375 4.203125 0.109375 C 3.597656 0.109375 3.054688 -0.015625 2.578125 -0.265625 C 2.097656 -0.515625 1.71875 -0.890625 1.4375 -1.390625 C 1.15625 -1.890625 1.015625 -2.5 1.015625 -3.21875 L 1.015625 -7.765625 L 2.296875 -7.765625 L 2.296875 -3.390625 C 2.296875 -2.617188 2.488281 -2.023438 2.875 -1.609375 C 3.257812 -1.203125 3.789062 -1 4.46875 -1 C 5.15625 -1 5.695312 -1.210938 6.09375 -1.640625 C 6.488281 -2.066406 6.6875 -2.6875 6.6875 -3.5 L 6.6875 -7.765625 Z M 7.984375 -7.765625 "/></g></g></g><g fill="#2e266d" fill-opacity="1"><g transform="translate(438.248542, 527.21655)"><g/></g></g><g fill="#2e266d" fill-opacity="1"><g transform="translate(442.028239, 527.21655)"><g><path d="M 8.703125 -9.875 L 8.703125 0 L 7.40625 0 L 7.40625 -4.484375 L 2.375 -4.484375 L 2.375 0 L 1.09375 0 L 1.09375 -9.875 L 2.375 -9.875 L 2.375 -5.546875 L 7.40625 -5.546875 L 7.40625 -9.875 Z M 8.703125 -9.875 "/></g></g></g></svg>